<mxfile modified="2023-10-18T14:00:12.512Z" host="app.diagrams.net" agent="Mozilla/5.0 (Windows NT 10.0; Win64; x64) AppleWebKit/537.36 (KHTML, like Gecko) Chrome/118.0.0.0 Safari/537.36 Edg/118.0.2088.46" etag="qP05PLf-Gz7mFO7-cjw1" version="22.0.4" type="github">
  <diagram id="WI9T0HZ2pTsCkuznbFz-" name="Page-1">
    <mxGraphModel dx="6780" dy="1897" grid="1" gridSize="10" guides="1" tooltips="1" connect="1" arrows="1" fold="1" page="1" pageScale="1" pageWidth="3300" pageHeight="2339" math="0" shadow="0">
      <root>
        <mxCell id="0" />
        <mxCell id="1" parent="0" />
        <mxCell id="jQJTU6ZBYPHnSlzti1QZ-1" value="" style="rounded=0;whiteSpace=wrap;html=1;fillColor=#f5f5f5;strokeColor=none;fontColor=#333333;verticalAlign=top;" parent="1" vertex="1">
          <mxGeometry x="662.5" y="830" width="700" height="300" as="geometry" />
        </mxCell>
        <mxCell id="jQJTU6ZBYPHnSlzti1QZ-2" value="Channel" style="rounded=0;whiteSpace=wrap;html=1;fillColor=#f5f5f5;strokeColor=none;fontColor=#333333;verticalAlign=top;" parent="1" vertex="1">
          <mxGeometry x="664.5" y="1310" width="700" height="300" as="geometry" />
        </mxCell>
        <mxCell id="jQJTU6ZBYPHnSlzti1QZ-3" value="Channel" style="rounded=0;whiteSpace=wrap;html=1;fillColor=#f5f5f5;strokeColor=none;fontColor=#333333;verticalAlign=top;" parent="1" vertex="1">
          <mxGeometry x="664.5" y="1790" width="700" height="300" as="geometry" />
        </mxCell>
        <mxCell id="jQJTU6ZBYPHnSlzti1QZ-4" value="" style="shape=image;verticalLabelPosition=bottom;labelBackgroundColor=#ffffff;verticalAlign=top;aspect=fixed;imageAspect=0;image=data:image/svg+xml,PHN2ZyB4bWxuczpjYz0iaHR0cDovL2NyZWF0aXZlY29tbW9ucy5vcmcvbnMjIiB4bWxuczpkYz0iaHR0cDovL3B1cmwub3JnL2RjL2VsZW1lbnRzLzEuMS8iIHhtbG5zOmlua3NjYXBlPSJodHRwOi8vd3d3Lmlua3NjYXBlLm9yZy9uYW1lc3BhY2VzL2lua3NjYXBlIiB4bWxuczpyZGY9Imh0dHA6Ly93d3cudzMub3JnLzE5OTkvMDIvMjItcmRmLXN5bnRheC1ucyMiIHhtbG5zOnNvZGlwb2RpPSJodHRwOi8vc29kaXBvZGkuc291cmNlZm9yZ2UubmV0L0RURC9zb2RpcG9kaS0wLmR0ZCIgeG1sbnM6c3ZnPSJodHRwOi8vd3d3LnczLm9yZy8yMDAwL3N2ZyIgeG1sbnM9Imh0dHA6Ly93d3cudzMub3JnLzIwMDAvc3ZnIiB4bWxuczp4bGluaz0iaHR0cDovL3d3dy53My5vcmcvMTk5OS94bGluayIgdmVyc2lvbj0iMS4xIiBpZD0ic3ZnODc5NzciIGlua3NjYXBlOnZlcnNpb249IjAuOTIuMyAoMjQwNTU0NiwgMjAxOC0wMy0xMSkiIHNvZGlwb2RpOmRvY25hbWU9Im5ldHdvcmtpbmdfdm5ldF9pbnRlZ3JhdGlvbi5zdmciIHg9IjBweCIgeT0iMHB4IiB2aWV3Qm94PSIwIDAgNDAuMzMgMjEuNjEiIHN0eWxlPSJlbmFibGUtYmFja2dyb3VuZDpuZXcgMCAwIDQwLjMzIDIxLjYxOyIgeG1sOnNwYWNlPSJwcmVzZXJ2ZSI+JiN4YTs8c29kaXBvZGk6bmFtZWR2aWV3IGJvcmRlcmNvbG9yPSIjNjY2NjY2IiBib3JkZXJvcGFjaXR5PSIxIiBmaXQtbWFyZ2luLWJvdHRvbT0iMCIgZml0LW1hcmdpbi1sZWZ0PSIwIiBmaXQtbWFyZ2luLXJpZ2h0PSIwIiBmaXQtbWFyZ2luLXRvcD0iMCIgZ3JpZHRvbGVyYW5jZT0iMTAiIGd1aWRldG9sZXJhbmNlPSIxMCIgaWQ9Im5hbWVkdmlldzg3OTc5IiBpbmtzY2FwZTpjdXJyZW50LWxheWVyPSJzdmc4Nzk3NyIgaW5rc2NhcGU6Y3g9IjE1Ljg1MTY2MSIgaW5rc2NhcGU6Y3k9IjcuOTY2NDg0OSIgaW5rc2NhcGU6cGFnZW9wYWNpdHk9IjAiIGlua3NjYXBlOnBhZ2VzaGFkb3c9IjIiIGlua3NjYXBlOndpbmRvdy1oZWlnaHQ9IjEwMTciIGlua3NjYXBlOndpbmRvdy1tYXhpbWl6ZWQ9IjEiIGlua3NjYXBlOndpbmRvdy13aWR0aD0iMTkyMCIgaW5rc2NhcGU6d2luZG93LXg9Ii04IiBpbmtzY2FwZTp3aW5kb3cteT0iLTgiIGlua3NjYXBlOnpvb209IjE1LjA0NjUxNiIgb2JqZWN0dG9sZXJhbmNlPSIxMCIgcGFnZWNvbG9yPSIjZmZmZmZmIiBzaG93Z3JpZD0iZmFsc2UiPiYjeGE7CTwvc29kaXBvZGk6bmFtZWR2aWV3PiYjeGE7PGcgaWQ9Imc4Nzk3NSI+JiN4YTsJPHRpdGxlIGlkPSJ0aXRsZTg3OTQ1Ij5QYWdlLTE8L3RpdGxlPiYjeGE7CTxnIGlkPSJncm91cDQ2MzgtMSI+JiN4YTsJCTx0aXRsZSBpZD0idGl0bGU4Nzk0NyI+TmV0d29ya2luZy9WTkVUIEludGVncmF0aW9uPC90aXRsZT4mI3hhOwkJPGcgaWQ9InNoYXBlNDYzOS0yIiB0cmFuc2Zvcm09InRyYW5zbGF0ZSgyOC4xMDIzKSI+JiN4YTsJCQk8dGl0bGUgaWQ9InRpdGxlODc5NDkiPlNoZWV0LjQ2Mzk8L3RpdGxlPiYjeGE7CQkJPHBhdGggaWQ9InBhdGg4Nzk1MSIgaW5rc2NhcGU6Y29ubmVjdG9yLWN1cnZhdHVyZT0iMCIgc3R5bGU9ImZpbGw6IzM5OTlDNjsiIGQ9Ik0xMi4yMywxMC42OEw5Ljg0LDguMjlMMS4zOSwwTDAsMS4yNmw5LjU4LDkuNDIgICAgIEwwLDIwLjM1bDEuMzksMS4yNmw4LjQ1LTguM0wxMi4yMywxMC42OHoiLz4mI3hhOwkJPC9nPiYjeGE7CQk8ZyBpZD0ic2hhcGU0NjQwLTQiPiYjeGE7CQkJPHRpdGxlIGlkPSJ0aXRsZTg3OTU0Ij5TaGVldC40NjQwPC90aXRsZT4mI3hhOwkJCTxwYXRoIGlkPSJwYXRoODc5NTYiIGlua3NjYXBlOmNvbm5lY3Rvci1jdXJ2YXR1cmU9IjAiIHN0eWxlPSJmaWxsOiMzOTk5QzY7IiBkPSJNMCwxMC42OGwyLjM5LTIuMzlMMTAuODQsMGwxLjM5LDEuMjYgICAgIGwtOS41OCw5LjQybDkuNTgsOS42N2wtMS4zOSwxLjI2bC04LjQ1LTguM0wwLDEwLjY4eiIvPiYjeGE7CQk8L2c+JiN4YTsJCTxnIGlkPSJzaGFwZTQ2NDEtNiIgdHJhbnNmb3JtPSJ0cmFuc2xhdGUoMTAuMzI5MiwtOC41MzE5NykiPiYjeGE7CQkJPHRpdGxlIGlkPSJ0aXRsZTg3OTU5Ij5TaGVldC40NjQxPC90aXRsZT4mI3hhOwkJCTxwYXRoIGlkPSJwYXRoODc5NjEiIGlua3NjYXBlOmNvbm5lY3Rvci1jdXJ2YXR1cmU9IjAiIHN0eWxlPSJmaWxsOiM3RkJBMDA7IiBkPSJNNC45MywxOS4yMWMwLDEuMzgtMS4xNCwyLjQtMi40MSwyLjQgICAgIGMtMS4yNiwwLTIuNTItMS4xNS0yLjUyLTIuNGMwLTEuMjYsMS4wMi0yLjM4LDIuNTItMi4zOEMzLjkxLDE2LjgzLDQuOTMsMTcuOTUsNC45MywxOS4yMXoiLz4mI3hhOwkJPC9nPiYjeGE7CQk8ZyBpZD0ic2hhcGU0NjQyLTgiIHRyYW5zZm9ybT0idHJhbnNsYXRlKDE3LjY0NTcsLTguNTMxOTcpIj4mI3hhOwkJCTx0aXRsZSBpZD0idGl0bGU4Nzk2NCI+U2hlZXQuNDY0MjwvdGl0bGU+JiN4YTsJCQk8cGF0aCBpZD0icGF0aDg3OTY2IiBpbmtzY2FwZTpjb25uZWN0b3ItY3VydmF0dXJlPSIwIiBzdHlsZT0iZmlsbDojN0ZCQTAwOyIgZD0iTTQuOTEsMTkuMjFjMCwxLjM4LTEuMTMsMi40LTIuMzksMi40ICAgICBTMCwyMC40NiwwLDE5LjIxYzAtMS4yNiwxLjEzLTIuMzgsMi41Mi0yLjM4UzQuOTEsMTcuOTUsNC45MSwxOS4yMXoiLz4mI3hhOwkJPC9nPiYjeGE7CQk8ZyBpZD0ic2hhcGU0NjQzLTEwIiB0cmFuc2Zvcm09InRyYW5zbGF0ZSgyNS4yMDEyLC04LjUzMTk3KSI+JiN4YTsJCQk8dGl0bGUgaWQ9InRpdGxlODc5NjkiPlNoZWV0LjQ2NDM8L3RpdGxlPiYjeGE7CQkJPHBhdGggaWQ9InBhdGg4Nzk3MSIgaW5rc2NhcGU6Y29ubmVjdG9yLWN1cnZhdHVyZT0iMCIgc3R5bGU9ImZpbGw6IzdGQkEwMDsiIGQ9Ik00LjgsMTkuMjFjMC0xLjMyLTEuMDktMi4zOC0yLjQxLTIuMzggICAgIEMxLjA4LDE2LjgzLDAsMTcuODksMCwxOS4yMXMxLjA4LDIuNCwyLjM5LDIuNEMzLjcxLDIxLjYxLDQuOCwyMC41Myw0LjgsMTkuMjF6Ii8+JiN4YTsJCTwvZz4mI3hhOwk8L2c+JiN4YTs8L2c+JiN4YTs8L3N2Zz4=;" parent="1" vertex="1">
          <mxGeometry x="670" y="820.0000000000018" width="50" height="27.5" as="geometry" />
        </mxCell>
        <mxCell id="jQJTU6ZBYPHnSlzti1QZ-5" value="" style="shape=image;verticalLabelPosition=bottom;labelBackgroundColor=#ffffff;verticalAlign=top;aspect=fixed;imageAspect=0;image=data:image/svg+xml,PHN2ZyB4bWxuczpjYz0iaHR0cDovL2NyZWF0aXZlY29tbW9ucy5vcmcvbnMjIiB4bWxuczpkYz0iaHR0cDovL3B1cmwub3JnL2RjL2VsZW1lbnRzLzEuMS8iIHhtbG5zOmlua3NjYXBlPSJodHRwOi8vd3d3Lmlua3NjYXBlLm9yZy9uYW1lc3BhY2VzL2lua3NjYXBlIiB4bWxuczpyZGY9Imh0dHA6Ly93d3cudzMub3JnLzE5OTkvMDIvMjItcmRmLXN5bnRheC1ucyMiIHhtbG5zOnNvZGlwb2RpPSJodHRwOi8vc29kaXBvZGkuc291cmNlZm9yZ2UubmV0L0RURC9zb2RpcG9kaS0wLmR0ZCIgeG1sbnM6c3ZnPSJodHRwOi8vd3d3LnczLm9yZy8yMDAwL3N2ZyIgeG1sbnM9Imh0dHA6Ly93d3cudzMub3JnLzIwMDAvc3ZnIiB4bWxuczp4bGluaz0iaHR0cDovL3d3dy53My5vcmcvMTk5OS94bGluayIgdmVyc2lvbj0iMS4xIiBpZD0ic3ZnODc5NzciIGlua3NjYXBlOnZlcnNpb249IjAuOTIuMyAoMjQwNTU0NiwgMjAxOC0wMy0xMSkiIHNvZGlwb2RpOmRvY25hbWU9Im5ldHdvcmtpbmdfdm5ldF9pbnRlZ3JhdGlvbi5zdmciIHg9IjBweCIgeT0iMHB4IiB2aWV3Qm94PSIwIDAgNDAuMzMgMjEuNjEiIHN0eWxlPSJlbmFibGUtYmFja2dyb3VuZDpuZXcgMCAwIDQwLjMzIDIxLjYxOyIgeG1sOnNwYWNlPSJwcmVzZXJ2ZSI+JiN4YTs8c29kaXBvZGk6bmFtZWR2aWV3IGJvcmRlcmNvbG9yPSIjNjY2NjY2IiBib3JkZXJvcGFjaXR5PSIxIiBmaXQtbWFyZ2luLWJvdHRvbT0iMCIgZml0LW1hcmdpbi1sZWZ0PSIwIiBmaXQtbWFyZ2luLXJpZ2h0PSIwIiBmaXQtbWFyZ2luLXRvcD0iMCIgZ3JpZHRvbGVyYW5jZT0iMTAiIGd1aWRldG9sZXJhbmNlPSIxMCIgaWQ9Im5hbWVkdmlldzg3OTc5IiBpbmtzY2FwZTpjdXJyZW50LWxheWVyPSJzdmc4Nzk3NyIgaW5rc2NhcGU6Y3g9IjE1Ljg1MTY2MSIgaW5rc2NhcGU6Y3k9IjcuOTY2NDg0OSIgaW5rc2NhcGU6cGFnZW9wYWNpdHk9IjAiIGlua3NjYXBlOnBhZ2VzaGFkb3c9IjIiIGlua3NjYXBlOndpbmRvdy1oZWlnaHQ9IjEwMTciIGlua3NjYXBlOndpbmRvdy1tYXhpbWl6ZWQ9IjEiIGlua3NjYXBlOndpbmRvdy13aWR0aD0iMTkyMCIgaW5rc2NhcGU6d2luZG93LXg9Ii04IiBpbmtzY2FwZTp3aW5kb3cteT0iLTgiIGlua3NjYXBlOnpvb209IjE1LjA0NjUxNiIgb2JqZWN0dG9sZXJhbmNlPSIxMCIgcGFnZWNvbG9yPSIjZmZmZmZmIiBzaG93Z3JpZD0iZmFsc2UiPiYjeGE7CTwvc29kaXBvZGk6bmFtZWR2aWV3PiYjeGE7PGcgaWQ9Imc4Nzk3NSI+JiN4YTsJPHRpdGxlIGlkPSJ0aXRsZTg3OTQ1Ij5QYWdlLTE8L3RpdGxlPiYjeGE7CTxnIGlkPSJncm91cDQ2MzgtMSI+JiN4YTsJCTx0aXRsZSBpZD0idGl0bGU4Nzk0NyI+TmV0d29ya2luZy9WTkVUIEludGVncmF0aW9uPC90aXRsZT4mI3hhOwkJPGcgaWQ9InNoYXBlNDYzOS0yIiB0cmFuc2Zvcm09InRyYW5zbGF0ZSgyOC4xMDIzKSI+JiN4YTsJCQk8dGl0bGUgaWQ9InRpdGxlODc5NDkiPlNoZWV0LjQ2Mzk8L3RpdGxlPiYjeGE7CQkJPHBhdGggaWQ9InBhdGg4Nzk1MSIgaW5rc2NhcGU6Y29ubmVjdG9yLWN1cnZhdHVyZT0iMCIgc3R5bGU9ImZpbGw6IzM5OTlDNjsiIGQ9Ik0xMi4yMywxMC42OEw5Ljg0LDguMjlMMS4zOSwwTDAsMS4yNmw5LjU4LDkuNDIgICAgIEwwLDIwLjM1bDEuMzksMS4yNmw4LjQ1LTguM0wxMi4yMywxMC42OHoiLz4mI3hhOwkJPC9nPiYjeGE7CQk8ZyBpZD0ic2hhcGU0NjQwLTQiPiYjeGE7CQkJPHRpdGxlIGlkPSJ0aXRsZTg3OTU0Ij5TaGVldC40NjQwPC90aXRsZT4mI3hhOwkJCTxwYXRoIGlkPSJwYXRoODc5NTYiIGlua3NjYXBlOmNvbm5lY3Rvci1jdXJ2YXR1cmU9IjAiIHN0eWxlPSJmaWxsOiMzOTk5QzY7IiBkPSJNMCwxMC42OGwyLjM5LTIuMzlMMTAuODQsMGwxLjM5LDEuMjYgICAgIGwtOS41OCw5LjQybDkuNTgsOS42N2wtMS4zOSwxLjI2bC04LjQ1LTguM0wwLDEwLjY4eiIvPiYjeGE7CQk8L2c+JiN4YTsJCTxnIGlkPSJzaGFwZTQ2NDEtNiIgdHJhbnNmb3JtPSJ0cmFuc2xhdGUoMTAuMzI5MiwtOC41MzE5NykiPiYjeGE7CQkJPHRpdGxlIGlkPSJ0aXRsZTg3OTU5Ij5TaGVldC40NjQxPC90aXRsZT4mI3hhOwkJCTxwYXRoIGlkPSJwYXRoODc5NjEiIGlua3NjYXBlOmNvbm5lY3Rvci1jdXJ2YXR1cmU9IjAiIHN0eWxlPSJmaWxsOiM3RkJBMDA7IiBkPSJNNC45MywxOS4yMWMwLDEuMzgtMS4xNCwyLjQtMi40MSwyLjQgICAgIGMtMS4yNiwwLTIuNTItMS4xNS0yLjUyLTIuNGMwLTEuMjYsMS4wMi0yLjM4LDIuNTItMi4zOEMzLjkxLDE2LjgzLDQuOTMsMTcuOTUsNC45MywxOS4yMXoiLz4mI3hhOwkJPC9nPiYjeGE7CQk8ZyBpZD0ic2hhcGU0NjQyLTgiIHRyYW5zZm9ybT0idHJhbnNsYXRlKDE3LjY0NTcsLTguNTMxOTcpIj4mI3hhOwkJCTx0aXRsZSBpZD0idGl0bGU4Nzk2NCI+U2hlZXQuNDY0MjwvdGl0bGU+JiN4YTsJCQk8cGF0aCBpZD0icGF0aDg3OTY2IiBpbmtzY2FwZTpjb25uZWN0b3ItY3VydmF0dXJlPSIwIiBzdHlsZT0iZmlsbDojN0ZCQTAwOyIgZD0iTTQuOTEsMTkuMjFjMCwxLjM4LTEuMTMsMi40LTIuMzksMi40ICAgICBTMCwyMC40NiwwLDE5LjIxYzAtMS4yNiwxLjEzLTIuMzgsMi41Mi0yLjM4UzQuOTEsMTcuOTUsNC45MSwxOS4yMXoiLz4mI3hhOwkJPC9nPiYjeGE7CQk8ZyBpZD0ic2hhcGU0NjQzLTEwIiB0cmFuc2Zvcm09InRyYW5zbGF0ZSgyNS4yMDEyLC04LjUzMTk3KSI+JiN4YTsJCQk8dGl0bGUgaWQ9InRpdGxlODc5NjkiPlNoZWV0LjQ2NDM8L3RpdGxlPiYjeGE7CQkJPHBhdGggaWQ9InBhdGg4Nzk3MSIgaW5rc2NhcGU6Y29ubmVjdG9yLWN1cnZhdHVyZT0iMCIgc3R5bGU9ImZpbGw6IzdGQkEwMDsiIGQ9Ik00LjgsMTkuMjFjMC0xLjMyLTEuMDktMi4zOC0yLjQxLTIuMzggICAgIEMxLjA4LDE2LjgzLDAsMTcuODksMCwxOS4yMXMxLjA4LDIuNCwyLjM5LDIuNEMzLjcxLDIxLjYxLDQuOCwyMC41Myw0LjgsMTkuMjF6Ii8+JiN4YTsJCTwvZz4mI3hhOwk8L2c+JiN4YTs8L2c+JiN4YTs8L3N2Zz4=;" parent="1" vertex="1">
          <mxGeometry x="670.5" y="1301.7500000000018" width="50" height="27.5" as="geometry" />
        </mxCell>
        <mxCell id="jQJTU6ZBYPHnSlzti1QZ-6" value="" style="shape=image;verticalLabelPosition=bottom;labelBackgroundColor=#ffffff;verticalAlign=top;aspect=fixed;imageAspect=0;image=data:image/svg+xml,PHN2ZyB4bWxuczpjYz0iaHR0cDovL2NyZWF0aXZlY29tbW9ucy5vcmcvbnMjIiB4bWxuczpkYz0iaHR0cDovL3B1cmwub3JnL2RjL2VsZW1lbnRzLzEuMS8iIHhtbG5zOmlua3NjYXBlPSJodHRwOi8vd3d3Lmlua3NjYXBlLm9yZy9uYW1lc3BhY2VzL2lua3NjYXBlIiB4bWxuczpyZGY9Imh0dHA6Ly93d3cudzMub3JnLzE5OTkvMDIvMjItcmRmLXN5bnRheC1ucyMiIHhtbG5zOnNvZGlwb2RpPSJodHRwOi8vc29kaXBvZGkuc291cmNlZm9yZ2UubmV0L0RURC9zb2RpcG9kaS0wLmR0ZCIgeG1sbnM6c3ZnPSJodHRwOi8vd3d3LnczLm9yZy8yMDAwL3N2ZyIgeG1sbnM9Imh0dHA6Ly93d3cudzMub3JnLzIwMDAvc3ZnIiB4bWxuczp4bGluaz0iaHR0cDovL3d3dy53My5vcmcvMTk5OS94bGluayIgdmVyc2lvbj0iMS4xIiBpZD0ic3ZnODc5NzciIGlua3NjYXBlOnZlcnNpb249IjAuOTIuMyAoMjQwNTU0NiwgMjAxOC0wMy0xMSkiIHNvZGlwb2RpOmRvY25hbWU9Im5ldHdvcmtpbmdfdm5ldF9pbnRlZ3JhdGlvbi5zdmciIHg9IjBweCIgeT0iMHB4IiB2aWV3Qm94PSIwIDAgNDAuMzMgMjEuNjEiIHN0eWxlPSJlbmFibGUtYmFja2dyb3VuZDpuZXcgMCAwIDQwLjMzIDIxLjYxOyIgeG1sOnNwYWNlPSJwcmVzZXJ2ZSI+JiN4YTs8c29kaXBvZGk6bmFtZWR2aWV3IGJvcmRlcmNvbG9yPSIjNjY2NjY2IiBib3JkZXJvcGFjaXR5PSIxIiBmaXQtbWFyZ2luLWJvdHRvbT0iMCIgZml0LW1hcmdpbi1sZWZ0PSIwIiBmaXQtbWFyZ2luLXJpZ2h0PSIwIiBmaXQtbWFyZ2luLXRvcD0iMCIgZ3JpZHRvbGVyYW5jZT0iMTAiIGd1aWRldG9sZXJhbmNlPSIxMCIgaWQ9Im5hbWVkdmlldzg3OTc5IiBpbmtzY2FwZTpjdXJyZW50LWxheWVyPSJzdmc4Nzk3NyIgaW5rc2NhcGU6Y3g9IjE1Ljg1MTY2MSIgaW5rc2NhcGU6Y3k9IjcuOTY2NDg0OSIgaW5rc2NhcGU6cGFnZW9wYWNpdHk9IjAiIGlua3NjYXBlOnBhZ2VzaGFkb3c9IjIiIGlua3NjYXBlOndpbmRvdy1oZWlnaHQ9IjEwMTciIGlua3NjYXBlOndpbmRvdy1tYXhpbWl6ZWQ9IjEiIGlua3NjYXBlOndpbmRvdy13aWR0aD0iMTkyMCIgaW5rc2NhcGU6d2luZG93LXg9Ii04IiBpbmtzY2FwZTp3aW5kb3cteT0iLTgiIGlua3NjYXBlOnpvb209IjE1LjA0NjUxNiIgb2JqZWN0dG9sZXJhbmNlPSIxMCIgcGFnZWNvbG9yPSIjZmZmZmZmIiBzaG93Z3JpZD0iZmFsc2UiPiYjeGE7CTwvc29kaXBvZGk6bmFtZWR2aWV3PiYjeGE7PGcgaWQ9Imc4Nzk3NSI+JiN4YTsJPHRpdGxlIGlkPSJ0aXRsZTg3OTQ1Ij5QYWdlLTE8L3RpdGxlPiYjeGE7CTxnIGlkPSJncm91cDQ2MzgtMSI+JiN4YTsJCTx0aXRsZSBpZD0idGl0bGU4Nzk0NyI+TmV0d29ya2luZy9WTkVUIEludGVncmF0aW9uPC90aXRsZT4mI3hhOwkJPGcgaWQ9InNoYXBlNDYzOS0yIiB0cmFuc2Zvcm09InRyYW5zbGF0ZSgyOC4xMDIzKSI+JiN4YTsJCQk8dGl0bGUgaWQ9InRpdGxlODc5NDkiPlNoZWV0LjQ2Mzk8L3RpdGxlPiYjeGE7CQkJPHBhdGggaWQ9InBhdGg4Nzk1MSIgaW5rc2NhcGU6Y29ubmVjdG9yLWN1cnZhdHVyZT0iMCIgc3R5bGU9ImZpbGw6IzM5OTlDNjsiIGQ9Ik0xMi4yMywxMC42OEw5Ljg0LDguMjlMMS4zOSwwTDAsMS4yNmw5LjU4LDkuNDIgICAgIEwwLDIwLjM1bDEuMzksMS4yNmw4LjQ1LTguM0wxMi4yMywxMC42OHoiLz4mI3hhOwkJPC9nPiYjeGE7CQk8ZyBpZD0ic2hhcGU0NjQwLTQiPiYjeGE7CQkJPHRpdGxlIGlkPSJ0aXRsZTg3OTU0Ij5TaGVldC40NjQwPC90aXRsZT4mI3hhOwkJCTxwYXRoIGlkPSJwYXRoODc5NTYiIGlua3NjYXBlOmNvbm5lY3Rvci1jdXJ2YXR1cmU9IjAiIHN0eWxlPSJmaWxsOiMzOTk5QzY7IiBkPSJNMCwxMC42OGwyLjM5LTIuMzlMMTAuODQsMGwxLjM5LDEuMjYgICAgIGwtOS41OCw5LjQybDkuNTgsOS42N2wtMS4zOSwxLjI2bC04LjQ1LTguM0wwLDEwLjY4eiIvPiYjeGE7CQk8L2c+JiN4YTsJCTxnIGlkPSJzaGFwZTQ2NDEtNiIgdHJhbnNmb3JtPSJ0cmFuc2xhdGUoMTAuMzI5MiwtOC41MzE5NykiPiYjeGE7CQkJPHRpdGxlIGlkPSJ0aXRsZTg3OTU5Ij5TaGVldC40NjQxPC90aXRsZT4mI3hhOwkJCTxwYXRoIGlkPSJwYXRoODc5NjEiIGlua3NjYXBlOmNvbm5lY3Rvci1jdXJ2YXR1cmU9IjAiIHN0eWxlPSJmaWxsOiM3RkJBMDA7IiBkPSJNNC45MywxOS4yMWMwLDEuMzgtMS4xNCwyLjQtMi40MSwyLjQgICAgIGMtMS4yNiwwLTIuNTItMS4xNS0yLjUyLTIuNGMwLTEuMjYsMS4wMi0yLjM4LDIuNTItMi4zOEMzLjkxLDE2LjgzLDQuOTMsMTcuOTUsNC45MywxOS4yMXoiLz4mI3hhOwkJPC9nPiYjeGE7CQk8ZyBpZD0ic2hhcGU0NjQyLTgiIHRyYW5zZm9ybT0idHJhbnNsYXRlKDE3LjY0NTcsLTguNTMxOTcpIj4mI3hhOwkJCTx0aXRsZSBpZD0idGl0bGU4Nzk2NCI+U2hlZXQuNDY0MjwvdGl0bGU+JiN4YTsJCQk8cGF0aCBpZD0icGF0aDg3OTY2IiBpbmtzY2FwZTpjb25uZWN0b3ItY3VydmF0dXJlPSIwIiBzdHlsZT0iZmlsbDojN0ZCQTAwOyIgZD0iTTQuOTEsMTkuMjFjMCwxLjM4LTEuMTMsMi40LTIuMzksMi40ICAgICBTMCwyMC40NiwwLDE5LjIxYzAtMS4yNiwxLjEzLTIuMzgsMi41Mi0yLjM4UzQuOTEsMTcuOTUsNC45MSwxOS4yMXoiLz4mI3hhOwkJPC9nPiYjeGE7CQk8ZyBpZD0ic2hhcGU0NjQzLTEwIiB0cmFuc2Zvcm09InRyYW5zbGF0ZSgyNS4yMDEyLC04LjUzMTk3KSI+JiN4YTsJCQk8dGl0bGUgaWQ9InRpdGxlODc5NjkiPlNoZWV0LjQ2NDM8L3RpdGxlPiYjeGE7CQkJPHBhdGggaWQ9InBhdGg4Nzk3MSIgaW5rc2NhcGU6Y29ubmVjdG9yLWN1cnZhdHVyZT0iMCIgc3R5bGU9ImZpbGw6IzdGQkEwMDsiIGQ9Ik00LjgsMTkuMjFjMC0xLjMyLTEuMDktMi4zOC0yLjQxLTIuMzggICAgIEMxLjA4LDE2LjgzLDAsMTcuODksMCwxOS4yMXMxLjA4LDIuNCwyLjM5LDIuNEMzLjcxLDIxLjYxLDQuOCwyMC41Myw0LjgsMTkuMjF6Ii8+JiN4YTsJCTwvZz4mI3hhOwk8L2c+JiN4YTs8L2c+JiN4YTs8L3N2Zz4=;" parent="1" vertex="1">
          <mxGeometry x="670" y="1780.0000000000018" width="50" height="27.5" as="geometry" />
        </mxCell>
        <mxCell id="jQJTU6ZBYPHnSlzti1QZ-7" value="nathan-vnet_spoke-ms-001" style="text;html=1;strokeColor=none;fillColor=none;align=center;verticalAlign=middle;whiteSpace=wrap;rounded=0;" parent="1" vertex="1">
          <mxGeometry x="662.5" y="860" width="160" height="30" as="geometry" />
        </mxCell>
        <mxCell id="jQJTU6ZBYPHnSlzti1QZ-8" value="nathan-vnet_hub-ms-001" style="text;html=1;strokeColor=none;fillColor=none;align=center;verticalAlign=middle;whiteSpace=wrap;rounded=0;" parent="1" vertex="1">
          <mxGeometry x="662.5" y="1340" width="160" height="30" as="geometry" />
        </mxCell>
        <mxCell id="jQJTU6ZBYPHnSlzti1QZ-9" value="nathan-vnet_spoke_pe-ms-002" style="text;html=1;strokeColor=none;fillColor=none;align=center;verticalAlign=middle;whiteSpace=wrap;rounded=0;" parent="1" vertex="1">
          <mxGeometry x="670.5" y="1812.5" width="179" height="30" as="geometry" />
        </mxCell>
        <mxCell id="jQJTU6ZBYPHnSlzti1QZ-18" value="nathan-spokeSubnet_vm-ms-001" style="text;html=1;strokeColor=none;fillColor=none;align=center;verticalAlign=middle;whiteSpace=wrap;rounded=0;" parent="1" vertex="1">
          <mxGeometry x="785" y="1080" width="165" height="30" as="geometry" />
        </mxCell>
        <mxCell id="jQJTU6ZBYPHnSlzti1QZ-20" value="nathan-subnet_vnet_integration-ms-001" style="text;html=1;strokeColor=none;fillColor=none;align=center;verticalAlign=middle;whiteSpace=wrap;rounded=0;" parent="1" vertex="1">
          <mxGeometry x="963" y="1080" width="183.5" height="30" as="geometry" />
        </mxCell>
        <mxCell id="jQJTU6ZBYPHnSlzti1QZ-24" style="edgeStyle=orthogonalEdgeStyle;rounded=0;orthogonalLoop=1;jettySize=auto;html=1;entryX=0.5;entryY=0;entryDx=0;entryDy=0;" parent="1" source="jQJTU6ZBYPHnSlzti1QZ-23" target="00JO5QgCpFu7TwFQyqcH-1" edge="1">
          <mxGeometry relative="1" as="geometry">
            <mxPoint x="1124.833333333333" y="890" as="targetPoint" />
          </mxGeometry>
        </mxCell>
        <mxCell id="jQJTU6ZBYPHnSlzti1QZ-25" value="" style="rounded=0;whiteSpace=wrap;html=1;fillColor=#f5f5f5;strokeColor=none;fontColor=#333333;verticalAlign=top;" parent="1" vertex="1">
          <mxGeometry x="-60" y="1310" width="534.5" height="300" as="geometry" />
        </mxCell>
        <mxCell id="jQJTU6ZBYPHnSlzti1QZ-26" value="" style="image;aspect=fixed;html=1;points=[];align=center;fontSize=12;image=img/lib/azure2/storage/Storage_Accounts.svg;" parent="1" vertex="1">
          <mxGeometry x="1440" y="830" width="65" height="52" as="geometry" />
        </mxCell>
        <mxCell id="jQJTU6ZBYPHnSlzti1QZ-28" value="" style="image;aspect=fixed;html=1;points=[];align=center;fontSize=12;image=img/lib/azure2/security/Key_Vaults.svg;" parent="1" vertex="1">
          <mxGeometry x="1440" y="1061" width="68" height="68" as="geometry" />
        </mxCell>
        <mxCell id="jQJTU6ZBYPHnSlzti1QZ-40" value="On prem" style="text;html=1;strokeColor=none;fillColor=none;align=center;verticalAlign=middle;whiteSpace=wrap;rounded=0;" parent="1" vertex="1">
          <mxGeometry x="-52" y="1340" width="60" height="30" as="geometry" />
        </mxCell>
        <mxCell id="jQJTU6ZBYPHnSlzti1QZ-41" value="" style="outlineConnect=0;dashed=0;verticalLabelPosition=bottom;verticalAlign=top;align=center;html=1;shape=mxgraph.aws3.customer_gateway;fillColor=#F58534;gradientColor=none;" parent="1" vertex="1">
          <mxGeometry x="360" y="1415" width="69" height="72" as="geometry" />
        </mxCell>
        <mxCell id="jQJTU6ZBYPHnSlzti1QZ-48" value="" style="endArrow=classic;startArrow=classic;html=1;rounded=0;entryX=0.5;entryY=1;entryDx=0;entryDy=0;exitX=0.5;exitY=0;exitDx=0;exitDy=0;" parent="1" source="jQJTU6ZBYPHnSlzti1QZ-3" target="jQJTU6ZBYPHnSlzti1QZ-2" edge="1">
          <mxGeometry width="50" height="50" relative="1" as="geometry">
            <mxPoint x="1035.2" y="1780" as="sourcePoint" />
            <mxPoint x="1035.0000000000002" y="1621.7999999999997" as="targetPoint" />
          </mxGeometry>
        </mxCell>
        <mxCell id="jQJTU6ZBYPHnSlzti1QZ-53" value="Peering" style="edgeLabel;html=1;align=center;verticalAlign=middle;resizable=0;points=[];" parent="jQJTU6ZBYPHnSlzti1QZ-48" vertex="1" connectable="0">
          <mxGeometry x="-0.0434" y="3" relative="1" as="geometry">
            <mxPoint x="3" y="-1" as="offset" />
          </mxGeometry>
        </mxCell>
        <mxCell id="jQJTU6ZBYPHnSlzti1QZ-49" value="" style="endArrow=classic;startArrow=classic;html=1;rounded=0;entryX=0.5;entryY=1;entryDx=0;entryDy=0;exitX=0.5;exitY=0;exitDx=0;exitDy=0;" parent="1" source="jQJTU6ZBYPHnSlzti1QZ-2" target="jQJTU6ZBYPHnSlzti1QZ-1" edge="1">
          <mxGeometry width="50" height="50" relative="1" as="geometry">
            <mxPoint x="1035" y="1306" as="sourcePoint" />
            <mxPoint x="1035" y="1148" as="targetPoint" />
          </mxGeometry>
        </mxCell>
        <mxCell id="jQJTU6ZBYPHnSlzti1QZ-52" value="Peering" style="edgeLabel;html=1;align=center;verticalAlign=middle;resizable=0;points=[];" parent="jQJTU6ZBYPHnSlzti1QZ-49" vertex="1" connectable="0">
          <mxGeometry x="0.0549" y="6" relative="1" as="geometry">
            <mxPoint x="6" y="7" as="offset" />
          </mxGeometry>
        </mxCell>
        <mxCell id="jQJTU6ZBYPHnSlzti1QZ-55" value="nathan-subnet_firewall-ms-001" style="text;html=1;strokeColor=none;fillColor=none;align=center;verticalAlign=middle;whiteSpace=wrap;rounded=0;" parent="1" vertex="1">
          <mxGeometry x="972.25" y="1540" width="165" height="30" as="geometry" />
        </mxCell>
        <mxCell id="jQJTU6ZBYPHnSlzti1QZ-59" value="GatewaySubnet" style="text;html=1;strokeColor=none;fillColor=none;align=center;verticalAlign=middle;whiteSpace=wrap;rounded=0;" parent="1" vertex="1">
          <mxGeometry x="800" y="1540" width="165" height="30" as="geometry" />
        </mxCell>
        <mxCell id="jQJTU6ZBYPHnSlzti1QZ-63" value="" style="shape=image;verticalLabelPosition=bottom;labelBackgroundColor=#ffffff;verticalAlign=top;aspect=fixed;imageAspect=0;image=data:image/svg+xml,PHN2ZyB4bWxuczpjYz0iaHR0cDovL2NyZWF0aXZlY29tbW9ucy5vcmcvbnMjIiB4bWxuczpkYz0iaHR0cDovL3B1cmwub3JnL2RjL2VsZW1lbnRzLzEuMS8iIHhtbG5zOmlua3NjYXBlPSJodHRwOi8vd3d3Lmlua3NjYXBlLm9yZy9uYW1lc3BhY2VzL2lua3NjYXBlIiB4bWxuczpyZGY9Imh0dHA6Ly93d3cudzMub3JnLzE5OTkvMDIvMjItcmRmLXN5bnRheC1ucyMiIHhtbG5zOnNvZGlwb2RpPSJodHRwOi8vc29kaXBvZGkuc291cmNlZm9yZ2UubmV0L0RURC9zb2RpcG9kaS0wLmR0ZCIgeG1sbnM6c3ZnPSJodHRwOi8vd3d3LnczLm9yZy8yMDAwL3N2ZyIgeG1sbnM9Imh0dHA6Ly93d3cudzMub3JnLzIwMDAvc3ZnIiB4bWxuczp4bGluaz0iaHR0cDovL3d3dy53My5vcmcvMTk5OS94bGluayIgdmVyc2lvbj0iMS4xIiBpZD0ic3ZnNzkyNTciIGlua3NjYXBlOnZlcnNpb249IjAuOTIuMyAoMjQwNTU0NiwgMjAxOC0wMy0xMSkiIHNvZGlwb2RpOmRvY25hbWU9Im9uX3ByZW1pc2VzLnN2ZyIgeD0iMHB4IiB5PSIwcHgiIHZpZXdCb3g9IjAgMCA0My41MyA2OSIgc3R5bGU9ImVuYWJsZS1iYWNrZ3JvdW5kOm5ldyAwIDAgNDMuNTMgNjk7IiB4bWw6c3BhY2U9InByZXNlcnZlIj4mI3hhOzxzb2RpcG9kaTpuYW1lZHZpZXcgYm9yZGVyY29sb3I9IiM2NjY2NjYiIGJvcmRlcm9wYWNpdHk9IjEiIGZpdC1tYXJnaW4tYm90dG9tPSIwIiBmaXQtbWFyZ2luLWxlZnQ9IjAiIGZpdC1tYXJnaW4tcmlnaHQ9IjAiIGZpdC1tYXJnaW4tdG9wPSIwIiBncmlkdG9sZXJhbmNlPSIxMCIgZ3VpZGV0b2xlcmFuY2U9IjEwIiBpZD0ibmFtZWR2aWV3NzkyNTkiIGlua3NjYXBlOmN1cnJlbnQtbGF5ZXI9InN2Zzc5MjU3IiBpbmtzY2FwZTpjeD0iMzAuOTg3MjU1IiBpbmtzY2FwZTpjeT0iMy4xMTM4MjUxIiBpbmtzY2FwZTpwYWdlb3BhY2l0eT0iMCIgaW5rc2NhcGU6cGFnZXNoYWRvdz0iMiIgaW5rc2NhcGU6d2luZG93LWhlaWdodD0iMTAxNyIgaW5rc2NhcGU6d2luZG93LW1heGltaXplZD0iMSIgaW5rc2NhcGU6d2luZG93LXdpZHRoPSIxOTIwIiBpbmtzY2FwZTp3aW5kb3cteD0iLTgiIGlua3NjYXBlOndpbmRvdy15PSItOCIgaW5rc2NhcGU6em9vbT0iMy4zNjg0NjkxIiBvYmplY3R0b2xlcmFuY2U9IjEwIiBwYWdlY29sb3I9IiNmZmZmZmYiIHNob3dncmlkPSJmYWxzZSI+JiN4YTsJPC9zb2RpcG9kaTpuYW1lZHZpZXc+JiN4YTs8ZyBpZD0iZzc5MjU1IiB0cmFuc2Zvcm09InRyYW5zbGF0ZSgwLjM3NDk5OTk3LDAuMzczMjkyOCkiPiYjeGE7CTx0aXRsZSBpZD0idGl0bGU3ODgzNSI+UGFnZS0xPC90aXRsZT4mI3hhOwk8ZyBpZD0iZ3JvdXA4NTgtMSI+JiN4YTsJCTx0aXRsZSBpZD0idGl0bGU3ODgzNyI+T24tUHJlbWlzZXM8L3RpdGxlPiYjeGE7CQk8ZyBpZD0ic2hhcGU4NTktMiI+JiN4YTsJCQk8dGl0bGUgaWQ9InRpdGxlNzg4MzkiPlNoZWV0Ljg1OTwvdGl0bGU+JiN4YTsJCQkmI3hhOwkJCQk8cGF0aCBpZD0icGF0aDc4ODQxIiBpbmtzY2FwZTpjb25uZWN0b3ItY3VydmF0dXJlPSIwIiBzdHlsZT0iZmlsbDojODA4MDgwO3N0cm9rZTojNTU2QThBO3N0cm9rZS13aWR0aDowLjc1O3N0cm9rZS1saW5lY2FwOnJvdW5kO3N0cm9rZS1saW5lam9pbjpyb3VuZDtzdHJva2UtbWl0ZXJsaW1pdDozOyIgZD0iICAgICBNMjEuMzYsMjkuOTRMMCwxNi4wNGwwLjAyLDM4LjI4bDIxLjMsMTMuOTNMMjEuMzYsMjkuOTR6Ii8+JiN4YTsJCTwvZz4mI3hhOwkJPGcgaWQ9InNoYXBlODYwLTQiPiYjeGE7CQkJPHRpdGxlIGlkPSJ0aXRsZTc4ODQ0Ij5TaGVldC44NjA8L3RpdGxlPiYjeGE7CQkJJiN4YTsJCQkJPHBhdGggaWQ9InBhdGg3ODg0NiIgaW5rc2NhcGU6Y29ubmVjdG9yLWN1cnZhdHVyZT0iMCIgc3R5bGU9ImZpbGw6I0U1RTVFNTtzdHJva2U6IzU1NkE4QTtzdHJva2Utd2lkdGg6MC43NTtzdHJva2UtbGluZWNhcDpyb3VuZDtzdHJva2UtbGluZWpvaW46cm91bmQ7c3Ryb2tlLW1pdGVybGltaXQ6MzsiIGQ9IiAgICAgTTIxLjM2LDI3LjgxTDAsMTMuODhsMC4wMiw0MC40NGwyMS4zLDEzLjkzTDIxLjM2LDI3LjgxeiIvPiYjeGE7CQk8L2c+JiN4YTsJCTxnIGlkPSJzaGFwZTg2MS02IiB0cmFuc2Zvcm09InRyYW5zbGF0ZSgyMS4zMTcxKSI+JiN4YTsJCQk8dGl0bGUgaWQ9InRpdGxlNzg4NDkiPlNoZWV0Ljg2MTwvdGl0bGU+JiN4YTsJCQkmI3hhOwkJCQk8cGF0aCBpZD0icGF0aDc4ODUxIiBpbmtzY2FwZTpjb25uZWN0b3ItY3VydmF0dXJlPSIwIiBzdHlsZT0iZmlsbDojRDlEQUQ4O3N0cm9rZTojNTU2QThBO3N0cm9rZS13aWR0aDowLjc1O3N0cm9rZS1saW5lY2FwOnJvdW5kO3N0cm9rZS1saW5lam9pbjpyb3VuZDtzdHJva2UtbWl0ZXJsaW1pdDozOyIgZD0iICAgICBNMCw2OC4yNWwyMS4zOS0xMy45M2wwLjA3LTM4LjI4TDAuMDUsMjkuOTRMMCw2OC4yNXoiLz4mI3hhOwkJPC9nPiYjeGE7CQk8ZyBpZD0ic2hhcGU4NjItOCIgdHJhbnNmb3JtPSJ0cmFuc2xhdGUoMjEuMzE3MSkiPiYjeGE7CQkJPHRpdGxlIGlkPSJ0aXRsZTc4ODU0Ij5TaGVldC44NjI8L3RpdGxlPiYjeGE7CQkJJiN4YTsJCQkJPHBhdGggaWQ9InBhdGg3ODg1NiIgaW5rc2NhcGU6Y29ubmVjdG9yLWN1cnZhdHVyZT0iMCIgc3R5bGU9ImZpbGw6I0ZGRkZGRjtzdHJva2U6IzU1NkE4QTtzdHJva2Utd2lkdGg6MC43NTtzdHJva2UtbGluZWNhcDpyb3VuZDtzdHJva2UtbGluZWpvaW46cm91bmQ7c3Ryb2tlLW1pdGVybGltaXQ6MzsiIGQ9IiAgICAgTTAsNjguMjVsMjEuMzktMTMuOTNsMC4wNy00MC40NEwwLjA1LDI3LjgxTDAsNjguMjV6Ii8+JiN4YTsJCTwvZz4mI3hhOwkJPGcgaWQ9InNoYXBlODYzLTEwIiB0cmFuc2Zvcm09InRyYW5zbGF0ZSgyLjM3OTAzLC00Mi4xOTEzKSI+JiN4YTsJCQk8dGl0bGUgaWQ9InRpdGxlNzg4NTkiPlNoZWV0Ljg2MzwvdGl0bGU+JiN4YTsJCQkmI3hhOwkJCQk8cGF0aCBpZD0icGF0aDc4ODYxIiBpbmtzY2FwZTpjb25uZWN0b3ItY3VydmF0dXJlPSIwIiBzdHlsZT0iZmlsbDojOTk2REFEO3N0cm9rZTojNTU2QThBO3N0cm9rZS13aWR0aDowLjc1O3N0cm9rZS1saW5lY2FwOnJvdW5kO3N0cm9rZS1saW5lam9pbjpyb3VuZDtzdHJva2UtbWl0ZXJsaW1pdDozOyIgZD0iICAgICBNMTkuMDEsNDMuNTdMMCw1NS44OGwxOS4wMSwxMi4zN2wxOC45Ni0xMi4zN0wxOS4wMSw0My41N3oiLz4mI3hhOwkJPC9nPiYjeGE7CQk8ZyBpZD0ic2hhcGU4NjQtMTIiIHRyYW5zZm9ybT0idHJhbnNsYXRlKDAsLTQwLjQzODMpIj4mI3hhOwkJCTx0aXRsZSBpZD0idGl0bGU3ODg2NCI+U2hlZXQuODY0PC90aXRsZT4mI3hhOwkJCSYjeGE7CQkJCTxwYXRoIGlkPSJwYXRoNzg4NjYiIGlua3NjYXBlOmNvbm5lY3Rvci1jdXJ2YXR1cmU9IjAiIHN0eWxlPSJmaWxsOiNFRkVERUM7c3Ryb2tlOiM1NTZBOEE7c3Ryb2tlLXdpZHRoOjAuNzU7c3Ryb2tlLWxpbmVjYXA6cm91bmQ7c3Ryb2tlLWxpbmVqb2luOnJvdW5kO3N0cm9rZS1taXRlcmxpbWl0OjM7IiBkPSIgICAgIE0yMS4zOSw0MC40NEwwLDU0LjMybDIxLjM5LDEzLjkzbDIxLjM5LTEzLjkzTDIxLjM5LDQwLjQ0eiBNMi4zOCw1NC4xM2wxOS4wMS0xMi4zMmwxOC45NiwxMi4zMkwyMS4zOSw2Ni41TDIuMzgsNTQuMTN6Ii8+JiN4YTsJCTwvZz4mI3hhOwkJPGcgaWQ9InNoYXBlODY1LTE0IiB0cmFuc2Zvcm09InRyYW5zbGF0ZSgxLjcxOTUsLTM3LjA3NDQpIj4mI3hhOwkJCTx0aXRsZSBpZD0idGl0bGU3ODg2OSI+U2hlZXQuODY1PC90aXRsZT4mI3hhOwkJCSYjeGE7CQkJCTxwYXRoIGlkPSJwYXRoNzg4NzEiIGlua3NjYXBlOmNvbm5lY3Rvci1jdXJ2YXR1cmU9IjAiIHN0eWxlPSJmaWxsOiNGRkZGRkY7c3Ryb2tlOiM1NTZBOEE7c3Ryb2tlLXdpZHRoOjAuNzU7c3Ryb2tlLWxpbmVjYXA6cm91bmQ7c3Ryb2tlLWxpbmVqb2luOnJvdW5kO3N0cm9rZS1taXRlcmxpbWl0OjM7IiBkPSIgICAgIE0wLjU3LDY1LjYydi00LjY0TDAsNjAuNjJsMC4wNSw1LjRsMy4zNCwyLjIzdi0wLjgxTDAuNTcsNjUuNjJ6Ii8+JiN4YTsJCTwvZz4mI3hhOwkJPGcgaWQ9InNoYXBlODY2LTE2IiB0cmFuc2Zvcm09InRyYW5zbGF0ZSgyLjI4NDgxLC0zNy44Nzk4KSI+JiN4YTsJCQk8dGl0bGUgaWQ9InRpdGxlNzg4NzQiPlNoZWV0Ljg2NjwvdGl0bGU+JiN4YTsJCQkmI3hhOwkJCQk8cGF0aCBpZD0icGF0aDc4ODc2IiBpbmtzY2FwZTpjb25uZWN0b3ItY3VydmF0dXJlPSIwIiBzdHlsZT0iZmlsbDojNTA5REJGO3N0cm9rZTojNTU2QThBO3N0cm9rZS13aWR0aDowLjc1O3N0cm9rZS1saW5lY2FwOnJvdW5kO3N0cm9rZS1saW5lam9pbjpyb3VuZDtzdHJva2UtbWl0ZXJsaW1pdDozOyIgZD0iICAgICBNMi44Myw2OC4yNXYtNC42NEwwLDYxLjc4djQuNjVMMi44Myw2OC4yNXoiLz4mI3hhOwkJPC9nPiYjeGE7CQk8ZyBpZD0ic2hhcGU4NjctMTgiIHRyYW5zZm9ybT0idHJhbnNsYXRlKDEuNzE5NSwtMjkuMzA0MSkiPiYjeGE7CQkJPHRpdGxlIGlkPSJ0aXRsZTc4ODc5Ij5TaGVldC44Njc8L3RpdGxlPiYjeGE7CQkJJiN4YTsJCQkJPHBhdGggaWQ9InBhdGg3ODg4MSIgaW5rc2NhcGU6Y29ubmVjdG9yLWN1cnZhdHVyZT0iMCIgc3R5bGU9ImZpbGw6I0ZGRkZGRjtzdHJva2U6IzU1NkE4QTtzdHJva2Utd2lkdGg6MC43NTtzdHJva2UtbGluZWNhcDpyb3VuZDtzdHJva2UtbGluZWpvaW46cm91bmQ7c3Ryb2tlLW1pdGVybGltaXQ6MzsiIGQ9IiAgICAgTTAuNTcsNjUuNnYtNC42MkwwLDYwLjYybDAuMDUsNS40bDMuMzQsMi4yM3YtMC44MUwwLjU3LDY1LjZ6Ii8+JiN4YTsJCTwvZz4mI3hhOwkJPGcgaWQ9InNoYXBlODY4LTIwIiB0cmFuc2Zvcm09InRyYW5zbGF0ZSgyLjI4NDgxLC0zMC4xMDk2KSI+JiN4YTsJCQk8dGl0bGUgaWQ9InRpdGxlNzg4ODQiPlNoZWV0Ljg2ODwvdGl0bGU+JiN4YTsJCQkmI3hhOwkJCQk8cGF0aCBpZD0icGF0aDc4ODg2IiBpbmtzY2FwZTpjb25uZWN0b3ItY3VydmF0dXJlPSIwIiBzdHlsZT0iZmlsbDojNTA5REJGO3N0cm9rZTojNTU2QThBO3N0cm9rZS13aWR0aDowLjc1O3N0cm9rZS1saW5lY2FwOnJvdW5kO3N0cm9rZS1saW5lam9pbjpyb3VuZDtzdHJva2UtbWl0ZXJsaW1pdDozOyIgZD0iICAgICBNMi44Myw2OC4yNXYtNC42NEwwLDYxLjc4djQuNjJMMi44Myw2OC4yNXoiLz4mI3hhOwkJPC9nPiYjeGE7CQk8ZyBpZD0ic2hhcGU4NjktMjIiIHRyYW5zZm9ybT0idHJhbnNsYXRlKDEuNzE5NSwtMjEuNTgxMykiPiYjeGE7CQkJPHRpdGxlIGlkPSJ0aXRsZTc4ODg5Ij5TaGVldC44Njk8L3RpdGxlPiYjeGE7CQkJJiN4YTsJCQkJPHBhdGggaWQ9InBhdGg3ODg5MSIgaW5rc2NhcGU6Y29ubmVjdG9yLWN1cnZhdHVyZT0iMCIgc3R5bGU9ImZpbGw6I0ZGRkZGRjtzdHJva2U6IzU1NkE4QTtzdHJva2Utd2lkdGg6MC43NTtzdHJva2UtbGluZWNhcDpyb3VuZDtzdHJva2UtbGluZWpvaW46cm91bmQ7c3Ryb2tlLW1pdGVybGltaXQ6MzsiIGQ9IiAgICAgTTAuNTcsNjUuNjR2LTQuNjJMMCw2MC42NWwwLjA1LDUuNDJsMy4zNCwyLjE4di0wLjc4TDAuNTcsNjUuNjR6Ii8+JiN4YTsJCTwvZz4mI3hhOwkJPGcgaWQ9InNoYXBlODcwLTI0IiB0cmFuc2Zvcm09InRyYW5zbGF0ZSgyLjI4NDgxLC0yMi4zNjMxKSI+JiN4YTsJCQk8dGl0bGUgaWQ9InRpdGxlNzg4OTQiPlNoZWV0Ljg3MDwvdGl0bGU+JiN4YTsJCQkmI3hhOwkJCQk8cGF0aCBpZD0icGF0aDc4ODk2IiBpbmtzY2FwZTpjb25uZWN0b3ItY3VydmF0dXJlPSIwIiBzdHlsZT0iZmlsbDojNTA5REJGO3N0cm9rZTojNTU2QThBO3N0cm9rZS13aWR0aDowLjc1O3N0cm9rZS1saW5lY2FwOnJvdW5kO3N0cm9rZS1saW5lam9pbjpyb3VuZDtzdHJva2UtbWl0ZXJsaW1pdDozOyIgZD0iICAgICBNMi44Myw2OC4yNXYtNC42MkwwLDYxLjgxdjQuNjJMMi44Myw2OC4yNXoiLz4mI3hhOwkJPC9nPiYjeGE7CQk8ZyBpZD0ic2hhcGU4NzEtMjYiIHRyYW5zZm9ybT0idHJhbnNsYXRlKDEuNzE5NSwtMTMuODExMSkiPiYjeGE7CQkJPHRpdGxlIGlkPSJ0aXRsZTc4ODk5Ij5TaGVldC44NzE8L3RpdGxlPiYjeGE7CQkJJiN4YTsJCQkJPHBhdGggaWQ9InBhdGg3ODkwMSIgaW5rc2NhcGU6Y29ubmVjdG9yLWN1cnZhdHVyZT0iMCIgc3R5bGU9ImZpbGw6I0ZGRkZGRjtzdHJva2U6IzU1NkE4QTtzdHJva2Utd2lkdGg6MC43NTtzdHJva2UtbGluZWNhcDpyb3VuZDtzdHJva2UtbGluZWpvaW46cm91bmQ7c3Ryb2tlLW1pdGVybGltaXQ6MzsiIGQ9IiAgICAgTTAuNTcsNjUuNjRWNjFMMCw2MC42NWwwLjA1LDUuNDJsMy4zNCwyLjE4di0wLjc4TDAuNTcsNjUuNjR6Ii8+JiN4YTsJCTwvZz4mI3hhOwkJPGcgaWQ9InNoYXBlODcyLTI4IiB0cmFuc2Zvcm09InRyYW5zbGF0ZSgyLjI4NDgxLC0xNC41OTI4KSI+JiN4YTsJCQk8dGl0bGUgaWQ9InRpdGxlNzg5MDQiPlNoZWV0Ljg3MjwvdGl0bGU+JiN4YTsJCQkmI3hhOwkJCQk8cGF0aCBpZD0icGF0aDc4OTA2IiBpbmtzY2FwZTpjb25uZWN0b3ItY3VydmF0dXJlPSIwIiBzdHlsZT0iZmlsbDojNTA5REJGO3N0cm9rZTojNTU2QThBO3N0cm9rZS13aWR0aDowLjc1O3N0cm9rZS1saW5lY2FwOnJvdW5kO3N0cm9rZS1saW5lam9pbjpyb3VuZDtzdHJva2UtbWl0ZXJsaW1pdDozOyIgZD0iICAgICBNMi44Myw2OC4yNXYtNC42MkwwLDYxLjc4djQuNjVMMi44Myw2OC4yNXoiLz4mI3hhOwkJPC9nPiYjeGE7CQk8ZyBpZD0ic2hhcGU4NzMtMzAiIHRyYW5zZm9ybT0idHJhbnNsYXRlKDYuMzEyNjgsLTM0LjI3OSkiPiYjeGE7CQkJPHRpdGxlIGlkPSJ0aXRsZTc4OTA5Ij5TaGVldC44NzM8L3RpdGxlPiYjeGE7CQkJJiN4YTsJCQkJPHBhdGggaWQ9InBhdGg3ODkxMSIgaW5rc2NhcGU6Y29ubmVjdG9yLWN1cnZhdHVyZT0iMCIgc3R5bGU9ImZpbGw6I0ZGRkZGRjtzdHJva2U6IzU1NkE4QTtzdHJva2Utd2lkdGg6MC43NTtzdHJva2UtbGluZWNhcDpyb3VuZDtzdHJva2UtbGluZWpvaW46cm91bmQ7c3Ryb2tlLW1pdGVybGltaXQ6MzsiIGQ9IiAgICAgTTAuNTcsNjUuNjRWNjFMMCw2MC42NWwwLjAyLDUuNGwzLjM3LDIuMnYtMC43OEwwLjU3LDY1LjY0eiIvPiYjeGE7CQk8L2c+JiN4YTsJCTxnIGlkPSJzaGFwZTg3NC0zMiIgdHJhbnNmb3JtPSJ0cmFuc2xhdGUoNi44Nzc5OSwtMzUuMDYwNykiPiYjeGE7CQkJPHRpdGxlIGlkPSJ0aXRsZTc4OTE0Ij5TaGVldC44NzQ8L3RpdGxlPiYjeGE7CQkJJiN4YTsJCQkJPHBhdGggaWQ9InBhdGg3ODkxNiIgaW5rc2NhcGU6Y29ubmVjdG9yLWN1cnZhdHVyZT0iMCIgc3R5bGU9ImZpbGw6IzUwOURCRjtzdHJva2U6IzU1NkE4QTtzdHJva2Utd2lkdGg6MC43NTtzdHJva2UtbGluZWNhcDpyb3VuZDtzdHJva2UtbGluZWpvaW46cm91bmQ7c3Ryb2tlLW1pdGVybGltaXQ6MzsiIGQ9IiAgICAgTTIuODMsNjguMjV2LTQuNjRMMCw2MS43OHY0LjY1TDIuODMsNjguMjV6Ii8+JiN4YTsJCTwvZz4mI3hhOwkJPGcgaWQ9InNoYXBlODc1LTM0IiB0cmFuc2Zvcm09InRyYW5zbGF0ZSg2LjMxMjY4LC0yNi41MDg4KSI+JiN4YTsJCQk8dGl0bGUgaWQ9InRpdGxlNzg5MTkiPlNoZWV0Ljg3NTwvdGl0bGU+JiN4YTsJCQkmI3hhOwkJCQk8cGF0aCBpZD0icGF0aDc4OTIxIiBpbmtzY2FwZTpjb25uZWN0b3ItY3VydmF0dXJlPSIwIiBzdHlsZT0iZmlsbDojRkZGRkZGO3N0cm9rZTojNTU2QThBO3N0cm9rZS13aWR0aDowLjc1O3N0cm9rZS1saW5lY2FwOnJvdW5kO3N0cm9rZS1saW5lam9pbjpyb3VuZDtzdHJva2UtbWl0ZXJsaW1pdDozOyIgZD0iICAgICBNMC41Nyw2NS42VjYxTDAsNjAuNjVsMC4wMiw1LjRsMy4zNywyLjJ2LTAuNzhMMC41Nyw2NS42eiIvPiYjeGE7CQk8L2c+JiN4YTsJCTxnIGlkPSJzaGFwZTg3Ni0zNiIgdHJhbnNmb3JtPSJ0cmFuc2xhdGUoNi44Nzc5OSwtMjcuMjkwNSkiPiYjeGE7CQkJPHRpdGxlIGlkPSJ0aXRsZTc4OTI0Ij5TaGVldC44NzY8L3RpdGxlPiYjeGE7CQkJJiN4YTsJCQkJPHBhdGggaWQ9InBhdGg3ODkyNiIgaW5rc2NhcGU6Y29ubmVjdG9yLWN1cnZhdHVyZT0iMCIgc3R5bGU9ImZpbGw6IzUwOURCRjtzdHJva2U6IzU1NkE4QTtzdHJva2Utd2lkdGg6MC43NTtzdHJva2UtbGluZWNhcDpyb3VuZDtzdHJva2UtbGluZWpvaW46cm91bmQ7c3Ryb2tlLW1pdGVybGltaXQ6MzsiIGQ9IiAgICAgTTIuODMsNjguMjV2LTQuNjRMMCw2MS43OHY0LjZMMi44Myw2OC4yNXoiLz4mI3hhOwkJPC9nPiYjeGE7CQk8ZyBpZD0ic2hhcGU4NzctMzgiIHRyYW5zZm9ybT0idHJhbnNsYXRlKDYuMzEyNjgsLTE4Ljc2MjIpIj4mI3hhOwkJCTx0aXRsZSBpZD0idGl0bGU3ODkyOSI+U2hlZXQuODc3PC90aXRsZT4mI3hhOwkJCSYjeGE7CQkJCTxwYXRoIGlkPSJwYXRoNzg5MzEiIGlua3NjYXBlOmNvbm5lY3Rvci1jdXJ2YXR1cmU9IjAiIHN0eWxlPSJmaWxsOiNGRkZGRkY7c3Ryb2tlOiM1NTZBOEE7c3Ryb2tlLXdpZHRoOjAuNzU7c3Ryb2tlLWxpbmVjYXA6cm91bmQ7c3Ryb2tlLWxpbmVqb2luOnJvdW5kO3N0cm9rZS1taXRlcmxpbWl0OjM7IiBkPSIgICAgIE0wLjU3LDY1LjYydi00LjZMMCw2MC42NWwwLjAyLDUuNDJsMy4zNywyLjE4di0wLjc4TDAuNTcsNjUuNjJ6Ii8+JiN4YTsJCTwvZz4mI3hhOwkJPGcgaWQ9InNoYXBlODc4LTQwIiB0cmFuc2Zvcm09InRyYW5zbGF0ZSg2Ljg3Nzk5LC0xOS41NDQpIj4mI3hhOwkJCTx0aXRsZSBpZD0idGl0bGU3ODkzNCI+U2hlZXQuODc4PC90aXRsZT4mI3hhOwkJCSYjeGE7CQkJCTxwYXRoIGlkPSJwYXRoNzg5MzYiIGlua3NjYXBlOmNvbm5lY3Rvci1jdXJ2YXR1cmU9IjAiIHN0eWxlPSJmaWxsOiMwMEFFRUY7c3Ryb2tlOiM1NTZBOEE7c3Ryb2tlLXdpZHRoOjAuNzU7c3Ryb2tlLWxpbmVjYXA6cm91bmQ7c3Ryb2tlLWxpbmVqb2luOnJvdW5kO3N0cm9rZS1taXRlcmxpbWl0OjM7IiBkPSIgICAgIE0yLjgzLDY4LjI1di00LjYyTDAsNjEuODF2NC41OUwyLjgzLDY4LjI1eiIvPiYjeGE7CQk8L2c+JiN4YTsJCTxnIGlkPSJzaGFwZTg3OS00MiIgdHJhbnNmb3JtPSJ0cmFuc2xhdGUoNi4zMTI2OCwtMTAuOTkyKSI+JiN4YTsJCQk8dGl0bGUgaWQ9InRpdGxlNzg5MzkiPlNoZWV0Ljg3OTwvdGl0bGU+JiN4YTsJCQkmI3hhOwkJCQk8cGF0aCBpZD0icGF0aDc4OTQxIiBpbmtzY2FwZTpjb25uZWN0b3ItY3VydmF0dXJlPSIwIiBzdHlsZT0iZmlsbDojRkZGRkZGO3N0cm9rZTojNTU2QThBO3N0cm9rZS13aWR0aDowLjc1O3N0cm9rZS1saW5lY2FwOnJvdW5kO3N0cm9rZS1saW5lam9pbjpyb3VuZDtzdHJva2UtbWl0ZXJsaW1pdDozOyIgZD0iICAgICBNMC41Nyw2NS42MnYtNC42NEwwLDYwLjY1bDAuMDIsNS40MmwzLjM3LDIuMTh2LTAuNzhMMC41Nyw2NS42MnoiLz4mI3hhOwkJPC9nPiYjeGE7CQk8ZyBpZD0ic2hhcGU4ODAtNDQiIHRyYW5zZm9ybT0idHJhbnNsYXRlKDYuODc3OTksLTExLjc3MzgpIj4mI3hhOwkJCTx0aXRsZSBpZD0idGl0bGU3ODk0NCI+U2hlZXQuODgwPC90aXRsZT4mI3hhOwkJCSYjeGE7CQkJCTxwYXRoIGlkPSJwYXRoNzg5NDYiIGlua3NjYXBlOmNvbm5lY3Rvci1jdXJ2YXR1cmU9IjAiIHN0eWxlPSJmaWxsOiM1MDlEQkY7c3Ryb2tlOiM1NTZBOEE7c3Ryb2tlLXdpZHRoOjAuNzU7c3Ryb2tlLWxpbmVjYXA6cm91bmQ7c3Ryb2tlLWxpbmVqb2luOnJvdW5kO3N0cm9rZS1taXRlcmxpbWl0OjM7IiBkPSIgICAgIE0yLjgzLDY4LjI1di00LjYyTDAsNjEuNzZ2NC42NEwyLjgzLDY4LjI1eiIvPiYjeGE7CQk8L2c+JiN4YTsJCTxnIGlkPSJzaGFwZTg4MS00NiIgdHJhbnNmb3JtPSJ0cmFuc2xhdGUoMTAuOTI5NCwtMzEuNDU5OSkiPiYjeGE7CQkJPHRpdGxlIGlkPSJ0aXRsZTc4OTQ5Ij5TaGVldC44ODE8L3RpdGxlPiYjeGE7CQkJJiN4YTsJCQkJPHBhdGggaWQ9InBhdGg3ODk1MSIgaW5rc2NhcGU6Y29ubmVjdG9yLWN1cnZhdHVyZT0iMCIgc3R5bGU9ImZpbGw6I0ZGRkZGRjtzdHJva2U6IzU1NkE4QTtzdHJva2Utd2lkdGg6MC43NTtzdHJva2UtbGluZWNhcDpyb3VuZDtzdHJva2UtbGluZWpvaW46cm91bmQ7c3Ryb2tlLW1pdGVybGltaXQ6MzsiIGQ9IiAgICAgTTAuNTQsNjUuNnYtNC42MkwwLDYwLjY1djUuNGwzLjM3LDIuMnYtMC43OEwwLjU0LDY1LjZ6Ii8+JiN4YTsJCTwvZz4mI3hhOwkJPGcgaWQ9InNoYXBlODgyLTQ4IiB0cmFuc2Zvcm09InRyYW5zbGF0ZSgxMS40NzEyLC0zMi4yNDE3KSI+JiN4YTsJCQk8dGl0bGUgaWQ9InRpdGxlNzg5NTQiPlNoZWV0Ljg4MjwvdGl0bGU+JiN4YTsJCQkmI3hhOwkJCQk8cGF0aCBpZD0icGF0aDc4OTU2IiBpbmtzY2FwZTpjb25uZWN0b3ItY3VydmF0dXJlPSIwIiBzdHlsZT0iZmlsbDojNTA5REJGO3N0cm9rZTojNTU2QThBO3N0cm9rZS13aWR0aDowLjc1O3N0cm9rZS1saW5lY2FwOnJvdW5kO3N0cm9rZS1saW5lam9pbjpyb3VuZDtzdHJva2UtbWl0ZXJsaW1pdDozOyIgZD0iICAgICBNMi44Myw2OC4yNXYtNC42NEwwLDYxLjc2djQuNjJMMi44Myw2OC4yNXoiLz4mI3hhOwkJPC9nPiYjeGE7CQk8ZyBpZD0ic2hhcGU4ODMtNTAiIHRyYW5zZm9ybT0idHJhbnNsYXRlKDEwLjkyOTQsLTIzLjY4OTcpIj4mI3hhOwkJCTx0aXRsZSBpZD0idGl0bGU3ODk1OSI+U2hlZXQuODgzPC90aXRsZT4mI3hhOwkJCSYjeGE7CQkJCTxwYXRoIGlkPSJwYXRoNzg5NjEiIGlua3NjYXBlOmNvbm5lY3Rvci1jdXJ2YXR1cmU9IjAiIHN0eWxlPSJmaWxsOiNGRkZGRkY7c3Ryb2tlOiM1NTZBOEE7c3Ryb2tlLXdpZHRoOjAuNzU7c3Ryb2tlLWxpbmVjYXA6cm91bmQ7c3Ryb2tlLWxpbmVqb2luOnJvdW5kO3N0cm9rZS1taXRlcmxpbWl0OjM7IiBkPSIgICAgIE0wLjU0LDY1LjZ2LTQuNjJMMCw2MC42NXY1LjRsMy4zNywyLjJ2LTAuODNMMC41NCw2NS42eiIvPiYjeGE7CQk8L2c+JiN4YTsJCTxnIGlkPSJzaGFwZTg4NC01MiIgdHJhbnNmb3JtPSJ0cmFuc2xhdGUoMTEuNDcxMiwtMjQuNTE4OCkiPiYjeGE7CQkJPHRpdGxlIGlkPSJ0aXRsZTc4OTY0Ij5TaGVldC44ODQ8L3RpdGxlPiYjeGE7CQkJJiN4YTsJCQkJPHBhdGggaWQ9InBhdGg3ODk2NiIgaW5rc2NhcGU6Y29ubmVjdG9yLWN1cnZhdHVyZT0iMCIgc3R5bGU9ImZpbGw6IzUwOURCRjtzdHJva2U6IzU1NkE4QTtzdHJva2Utd2lkdGg6MC43NTtzdHJva2UtbGluZWNhcDpyb3VuZDtzdHJva2UtbGluZWpvaW46cm91bmQ7c3Ryb2tlLW1pdGVybGltaXQ6MzsiIGQ9IiAgICAgTTIuODMsNjguMjV2LTQuNkwwLDYxLjgxdjQuNjJMMi44Myw2OC4yNXoiLz4mI3hhOwkJPC9nPiYjeGE7CQk8ZyBpZD0ic2hhcGU4ODUtNTQiIHRyYW5zZm9ybT0idHJhbnNsYXRlKDEwLjkyOTQsLTE1Ljk0MzIpIj4mI3hhOwkJCTx0aXRsZSBpZD0idGl0bGU3ODk2OSI+U2hlZXQuODg1PC90aXRsZT4mI3hhOwkJCSYjeGE7CQkJCTxwYXRoIGlkPSJwYXRoNzg5NzEiIGlua3NjYXBlOmNvbm5lY3Rvci1jdXJ2YXR1cmU9IjAiIHN0eWxlPSJmaWxsOiNGRkZGRkY7c3Ryb2tlOiM1NTZBOEE7c3Ryb2tlLXdpZHRoOjAuNzU7c3Ryb2tlLWxpbmVjYXA6cm91bmQ7c3Ryb2tlLWxpbmVqb2luOnJvdW5kO3N0cm9rZS1taXRlcmxpbWl0OjM7IiBkPSIgICAgIE0wLjU0LDY1LjYyVjYxTDAsNjAuNjJ2NS40NWwzLjM3LDIuMTh2LTAuODFMMC41NCw2NS42MnoiLz4mI3hhOwkJPC9nPiYjeGE7CQk8ZyBpZD0ic2hhcGU4ODYtNTYiIHRyYW5zZm9ybT0idHJhbnNsYXRlKDExLjQ3MTIsLTE2Ljc0ODYpIj4mI3hhOwkJCTx0aXRsZSBpZD0idGl0bGU3ODk3NCI+U2hlZXQuODg2PC90aXRsZT4mI3hhOwkJCSYjeGE7CQkJCTxwYXRoIGlkPSJwYXRoNzg5NzYiIGlua3NjYXBlOmNvbm5lY3Rvci1jdXJ2YXR1cmU9IjAiIHN0eWxlPSJmaWxsOiM1MDlEQkY7c3Ryb2tlOiM1NTZBOEE7c3Ryb2tlLXdpZHRoOjAuNzU7c3Ryb2tlLWxpbmVjYXA6cm91bmQ7c3Ryb2tlLWxpbmVqb2luOnJvdW5kO3N0cm9rZS1taXRlcmxpbWl0OjM7IiBkPSIgICAgIE0yLjgzLDY4LjI1di00LjZMMCw2MS44MXY0LjYyTDIuODMsNjguMjV6Ii8+JiN4YTsJCTwvZz4mI3hhOwkJPGcgaWQ9InNoYXBlODg3LTU4IiB0cmFuc2Zvcm09InRyYW5zbGF0ZSgxMC45Mjk0LC04LjE3Mjk0KSI+JiN4YTsJCQk8dGl0bGUgaWQ9InRpdGxlNzg5NzkiPlNoZWV0Ljg4NzwvdGl0bGU+JiN4YTsJCQkmI3hhOwkJCQk8cGF0aCBpZD0icGF0aDc4OTgxIiBpbmtzY2FwZTpjb25uZWN0b3ItY3VydmF0dXJlPSIwIiBzdHlsZT0iZmlsbDojRkZGRkZGO3N0cm9rZTojNTU2QThBO3N0cm9rZS13aWR0aDowLjc1O3N0cm9rZS1saW5lY2FwOnJvdW5kO3N0cm9rZS1saW5lam9pbjpyb3VuZDtzdHJva2UtbWl0ZXJsaW1pdDozOyIgZD0iICAgICBNMC41NCw2NS42MnYtNC42NEwwLDYwLjYydjUuNDVsMy4zNywyLjE4di0wLjgxTDAuNTQsNjUuNjJ6Ii8+JiN4YTsJCTwvZz4mI3hhOwkJPGcgaWQ9InNoYXBlODg4LTYwIiB0cmFuc2Zvcm09InRyYW5zbGF0ZSgxMS40NzEyLC04Ljk3ODM5KSI+JiN4YTsJCQk8dGl0bGUgaWQ9InRpdGxlNzg5ODQiPlNoZWV0Ljg4ODwvdGl0bGU+JiN4YTsJCQkmI3hhOwkJCQk8cGF0aCBpZD0icGF0aDc4OTg2IiBpbmtzY2FwZTpjb25uZWN0b3ItY3VydmF0dXJlPSIwIiBzdHlsZT0iZmlsbDojNTA5REJGO3N0cm9rZTojNTU2QThBO3N0cm9rZS13aWR0aDowLjc1O3N0cm9rZS1saW5lY2FwOnJvdW5kO3N0cm9rZS1saW5lam9pbjpyb3VuZDtzdHJva2UtbWl0ZXJsaW1pdDozOyIgZD0iICAgICBNMi44Myw2OC4yNXYtNC42TDAsNjEuNzh2NC42NUwyLjgzLDY4LjI1eiIvPiYjeGE7CQk8L2c+JiN4YTsJCTxnIGlkPSJzaGFwZTg4OS02MiIgdHJhbnNmb3JtPSJ0cmFuc2xhdGUoMTUuNTIyNiwtMjguNjQwOCkiPiYjeGE7CQkJPHRpdGxlIGlkPSJ0aXRsZTc4OTg5Ij5TaGVldC44ODk8L3RpdGxlPiYjeGE7CQkJJiN4YTsJCQkJPHBhdGggaWQ9InBhdGg3ODk5MSIgaW5rc2NhcGU6Y29ubmVjdG9yLWN1cnZhdHVyZT0iMCIgc3R5bGU9ImZpbGw6I0ZGRkZGRjtzdHJva2U6IzU1NkE4QTtzdHJva2Utd2lkdGg6MC43NTtzdHJva2UtbGluZWNhcDpyb3VuZDtzdHJva2UtbGluZWpvaW46cm91bmQ7c3Ryb2tlLW1pdGVybGltaXQ6MzsiIGQ9IiAgICAgTTAuNTIsNjUuNnYtNC42MkwwLDYwLjYydjUuNGwzLjM0LDIuMjN2LTAuODFMMC41Miw2NS42eiIvPiYjeGE7CQk8L2c+JiN4YTsJCTxnIGlkPSJzaGFwZTg5MC02NCIgdHJhbnNmb3JtPSJ0cmFuc2xhdGUoMTYuMDQwOCwtMjkuNDQ2MykiPiYjeGE7CQkJPHRpdGxlIGlkPSJ0aXRsZTc4OTk0Ij5TaGVldC44OTA8L3RpdGxlPiYjeGE7CQkJJiN4YTsJCQkJPHBhdGggaWQ9InBhdGg3ODk5NiIgaW5rc2NhcGU6Y29ubmVjdG9yLWN1cnZhdHVyZT0iMCIgc3R5bGU9ImZpbGw6IzUwOURCRjtzdHJva2U6IzU1NkE4QTtzdHJva2Utd2lkdGg6MC43NTtzdHJva2UtbGluZWNhcDpyb3VuZDtzdHJva2UtbGluZWpvaW46cm91bmQ7c3Ryb2tlLW1pdGVybGltaXQ6MzsiIGQ9IiAgICAgTTIuODMsNjguMjV2LTQuNjRMMCw2MS43OHY0LjYyTDIuODMsNjguMjV6Ii8+JiN4YTsJCTwvZz4mI3hhOwkJPGcgaWQ9InNoYXBlODkxLTY2IiB0cmFuc2Zvcm09InRyYW5zbGF0ZSgxNS41MjI2LC0yMC44NzA2KSI+JiN4YTsJCQk8dGl0bGUgaWQ9InRpdGxlNzg5OTkiPlNoZWV0Ljg5MTwvdGl0bGU+JiN4YTsJCQkmI3hhOwkJCQk8cGF0aCBpZD0icGF0aDc5MDAxIiBpbmtzY2FwZTpjb25uZWN0b3ItY3VydmF0dXJlPSIwIiBzdHlsZT0iZmlsbDojRkZGRkZGO3N0cm9rZTojNTU2QThBO3N0cm9rZS13aWR0aDowLjc1O3N0cm9rZS1saW5lY2FwOnJvdW5kO3N0cm9rZS1saW5lam9pbjpyb3VuZDtzdHJva2UtbWl0ZXJsaW1pdDozOyIgZD0iICAgICBNMC41Miw2NS42di00LjYyTDAsNjAuNnY1LjQybDMuMzQsMi4yM3YtMC44M0wwLjUyLDY1LjZ6Ii8+JiN4YTsJCTwvZz4mI3hhOwkJPGcgaWQ9InNoYXBlODkyLTY4IiB0cmFuc2Zvcm09InRyYW5zbGF0ZSgxNi4wNDA4LC0yMS42OTk4KSI+JiN4YTsJCQk8dGl0bGUgaWQ9InRpdGxlNzkwMDQiPlNoZWV0Ljg5MjwvdGl0bGU+JiN4YTsJCQkmI3hhOwkJCQk8cGF0aCBpZD0icGF0aDc5MDA2IiBpbmtzY2FwZTpjb25uZWN0b3ItY3VydmF0dXJlPSIwIiBzdHlsZT0iZmlsbDojNTA5REJGO3N0cm9rZTojNTU2QThBO3N0cm9rZS13aWR0aDowLjc1O3N0cm9rZS1saW5lY2FwOnJvdW5kO3N0cm9rZS1saW5lam9pbjpyb3VuZDtzdHJva2UtbWl0ZXJsaW1pdDozOyIgZD0iICAgICBNMi44Myw2OC4yNXYtNC42MkwwLDYxLjgxdjQuNjJMMi44Myw2OC4yNXoiLz4mI3hhOwkJPC9nPiYjeGE7CQk8ZyBpZD0ic2hhcGU4OTMtNzAiIHRyYW5zZm9ybT0idHJhbnNsYXRlKDE1LjUyMjYsLTEzLjE0NzgpIj4mI3hhOwkJCTx0aXRsZSBpZD0idGl0bGU3OTAwOSI+U2hlZXQuODkzPC90aXRsZT4mI3hhOwkJCSYjeGE7CQkJCTxwYXRoIGlkPSJwYXRoNzkwMTEiIGlua3NjYXBlOmNvbm5lY3Rvci1jdXJ2YXR1cmU9IjAiIHN0eWxlPSJmaWxsOiNGRkZGRkY7c3Ryb2tlOiM1NTZBOEE7c3Ryb2tlLXdpZHRoOjAuNzU7c3Ryb2tlLWxpbmVjYXA6cm91bmQ7c3Ryb2tlLWxpbmVqb2luOnJvdW5kO3N0cm9rZS1taXRlcmxpbWl0OjM7IiBkPSIgICAgIE0wLjUyLDY1LjY0di00LjYyTDAsNjAuNjV2NS40MmwzLjM0LDIuMTh2LTAuNzhMMC41Miw2NS42NHoiLz4mI3hhOwkJPC9nPiYjeGE7CQk8ZyBpZD0ic2hhcGU4OTQtNzIiIHRyYW5zZm9ybT0idHJhbnNsYXRlKDE2LjA0MDgsLTEzLjkyOTUpIj4mI3hhOwkJCTx0aXRsZSBpZD0idGl0bGU3OTAxNCI+U2hlZXQuODk0PC90aXRsZT4mI3hhOwkJCSYjeGE7CQkJCTxwYXRoIGlkPSJwYXRoNzkwMTYiIGlua3NjYXBlOmNvbm5lY3Rvci1jdXJ2YXR1cmU9IjAiIHN0eWxlPSJmaWxsOiM1MDlEQkY7c3Ryb2tlOiM1NTZBOEE7c3Ryb2tlLXdpZHRoOjAuNzU7c3Ryb2tlLWxpbmVjYXA6cm91bmQ7c3Ryb2tlLWxpbmVqb2luOnJvdW5kO3N0cm9rZS1taXRlcmxpbWl0OjM7IiBkPSIgICAgIE0yLjgzLDY4LjI1di00LjYyTDAsNjEuODF2NC42MkwyLjgzLDY4LjI1eiIvPiYjeGE7CQk8L2c+JiN4YTsJCTxnIGlkPSJzaGFwZTg5NS03NCIgdHJhbnNmb3JtPSJ0cmFuc2xhdGUoMTUuNTIyNiwtNS4zNzc1NikiPiYjeGE7CQkJPHRpdGxlIGlkPSJ0aXRsZTc5MDE5Ij5TaGVldC44OTU8L3RpdGxlPiYjeGE7CQkJJiN4YTsJCQkJPHBhdGggaWQ9InBhdGg3OTAyMSIgaW5rc2NhcGU6Y29ubmVjdG9yLWN1cnZhdHVyZT0iMCIgc3R5bGU9ImZpbGw6I0ZGRkZGRjtzdHJva2U6IzU1NkE4QTtzdHJva2Utd2lkdGg6MC43NTtzdHJva2UtbGluZWNhcDpyb3VuZDtzdHJva2UtbGluZWpvaW46cm91bmQ7c3Ryb2tlLW1pdGVybGltaXQ6MzsiIGQ9IiAgICAgTTAuNTIsNjUuNjRWNjFMMCw2MC42NXY1LjQybDMuMzQsMi4xOHYtMC43OEwwLjUyLDY1LjY0eiIvPiYjeGE7CQk8L2c+JiN4YTsJCTxnIGlkPSJzaGFwZTg5Ni03NiIgdHJhbnNmb3JtPSJ0cmFuc2xhdGUoMTYuMDQwOCwtNi4xNTkzMikiPiYjeGE7CQkJPHRpdGxlIGlkPSJ0aXRsZTc5MDI0Ij5TaGVldC44OTY8L3RpdGxlPiYjeGE7CQkJJiN4YTsJCQkJPHBhdGggaWQ9InBhdGg3OTAyNiIgaW5rc2NhcGU6Y29ubmVjdG9yLWN1cnZhdHVyZT0iMCIgc3R5bGU9ImZpbGw6IzUwOURCRjtzdHJva2U6IzU1NkE4QTtzdHJva2Utd2lkdGg6MC43NTtzdHJva2UtbGluZWNhcDpyb3VuZDtzdHJva2UtbGluZWpvaW46cm91bmQ7c3Ryb2tlLW1pdGVybGltaXQ6MzsiIGQ9IiAgICAgTTIuODMsNjguMjV2LTQuNjJMMCw2MS43OHY0LjY1TDIuODMsNjguMjV6Ii8+JiN4YTsJCTwvZz4mI3hhOwkJPGcgaWQ9InNoYXBlODk3LTc4IiB0cmFuc2Zvcm09InRyYW5zbGF0ZSgzNy4xNDU5LC0zNy4wNzQ0KSI+JiN4YTsJCQk8dGl0bGUgaWQ9InRpdGxlNzkwMjkiPlNoZWV0Ljg5NzwvdGl0bGU+JiN4YTsJCQkmI3hhOwkJCQk8cGF0aCBpZD0icGF0aDc5MDMxIiBpbmtzY2FwZTpjb25uZWN0b3ItY3VydmF0dXJlPSIwIiBzdHlsZT0iZmlsbDojRTRFNEU0O3N0cm9rZTojNTU2QThBO3N0cm9rZS13aWR0aDowLjc1O3N0cm9rZS1saW5lY2FwOnJvdW5kO3N0cm9rZS1saW5lam9pbjpyb3VuZDtzdHJva2UtbWl0ZXJsaW1pdDozOyIgZD0iICAgICBNMi44Nyw2NS42MnYtNC42NGwwLjUyLTAuMzZ2NS40TDAsNjguMjV2LTAuODFMMi44Nyw2NS42MnoiLz4mI3hhOwkJPC9nPiYjeGE7CQk8ZyBpZD0ic2hhcGU4OTgtODAiIHRyYW5zZm9ybT0idHJhbnNsYXRlKDM3LjE0NTksLTI5LjMwNDEpIj4mI3hhOwkJCTx0aXRsZSBpZD0idGl0bGU3OTAzNCI+U2hlZXQuODk4PC90aXRsZT4mI3hhOwkJCSYjeGE7CQkJCTxwYXRoIGlkPSJwYXRoNzkwMzYiIGlua3NjYXBlOmNvbm5lY3Rvci1jdXJ2YXR1cmU9IjAiIHN0eWxlPSJmaWxsOiNFNEU0RTQ7c3Ryb2tlOiM1NTZBOEE7c3Ryb2tlLXdpZHRoOjAuNzU7c3Ryb2tlLWxpbmVjYXA6cm91bmQ7c3Ryb2tlLWxpbmVqb2luOnJvdW5kO3N0cm9rZS1taXRlcmxpbWl0OjM7IiBkPSIgICAgIE0yLjg3LDY1LjZ2LTQuNjJsMC41Mi0wLjM2djUuNEwwLDY4LjI1di0wLjgxTDIuODcsNjUuNnoiLz4mI3hhOwkJPC9nPiYjeGE7CQk8ZyBpZD0ic2hhcGU4OTktODIiIHRyYW5zZm9ybT0idHJhbnNsYXRlKDM3LjE0NTksLTIxLjU4MTMpIj4mI3hhOwkJCTx0aXRsZSBpZD0idGl0bGU3OTAzOSI+U2hlZXQuODk5PC90aXRsZT4mI3hhOwkJCSYjeGE7CQkJCTxwYXRoIGlkPSJwYXRoNzkwNDEiIGlua3NjYXBlOmNvbm5lY3Rvci1jdXJ2YXR1cmU9IjAiIHN0eWxlPSJmaWxsOiNFNEU0RTQ7c3Ryb2tlOiM1NTZBOEE7c3Ryb2tlLXdpZHRoOjAuNzU7c3Ryb2tlLWxpbmVjYXA6cm91bmQ7c3Ryb2tlLWxpbmVqb2luOnJvdW5kO3N0cm9rZS1taXRlcmxpbWl0OjM7IiBkPSIgICAgIE0yLjg3LDY1LjY0di00LjYybDAuNTItMC4zN3Y1LjQyTDAsNjguMjV2LTAuNzhMMi44Nyw2NS42NHoiLz4mI3hhOwkJPC9nPiYjeGE7CQk8ZyBpZD0ic2hhcGU5MDAtODQiIHRyYW5zZm9ybT0idHJhbnNsYXRlKDM3LjE0NTksLTEzLjgxMTEpIj4mI3hhOwkJCTx0aXRsZSBpZD0idGl0bGU3OTA0NCI+U2hlZXQuOTAwPC90aXRsZT4mI3hhOwkJCSYjeGE7CQkJCTxwYXRoIGlkPSJwYXRoNzkwNDYiIGlua3NjYXBlOmNvbm5lY3Rvci1jdXJ2YXR1cmU9IjAiIHN0eWxlPSJmaWxsOiNFNEU0RTQ7c3Ryb2tlOiM1NTZBOEE7c3Ryb2tlLXdpZHRoOjAuNzU7c3Ryb2tlLWxpbmVjYXA6cm91bmQ7c3Ryb2tlLWxpbmVqb2luOnJvdW5kO3N0cm9rZS1taXRlcmxpbWl0OjM7IiBkPSIgICAgIE0yLjg3LDY1LjY0VjYxbDAuNTItMC4zNXY1LjQyTDAsNjguMjV2LTAuNzhMMi44Nyw2NS42NHoiLz4mI3hhOwkJPC9nPiYjeGE7CQk8ZyBpZD0ic2hhcGU5MDEtODYiIHRyYW5zZm9ybT0idHJhbnNsYXRlKDMyLjU3NjIsLTM0LjI3OSkiPiYjeGE7CQkJPHRpdGxlIGlkPSJ0aXRsZTc5MDQ5Ij5TaGVldC45MDE8L3RpdGxlPiYjeGE7CQkJJiN4YTsJCQkJPHBhdGggaWQ9InBhdGg3OTA1MSIgaW5rc2NhcGU6Y29ubmVjdG9yLWN1cnZhdHVyZT0iMCIgc3R5bGU9ImZpbGw6I0U0RTRFNDtzdHJva2U6IzU1NkE4QTtzdHJva2Utd2lkdGg6MC43NTtzdHJva2UtbGluZWNhcDpyb3VuZDtzdHJva2UtbGluZWpvaW46cm91bmQ7c3Ryb2tlLW1pdGVybGltaXQ6MzsiIGQ9IiAgICAgTTIuODMsNjUuNjRMMi44NSw2MWwwLjU0LTAuMzV2NS40TDAsNjguMjV2LTAuNzhMMi44Myw2NS42NHoiLz4mI3hhOwkJPC9nPiYjeGE7CQk8ZyBpZD0ic2hhcGU5MDItODgiIHRyYW5zZm9ybT0idHJhbnNsYXRlKDMyLjU3NjIsLTI2LjUwODgpIj4mI3hhOwkJCTx0aXRsZSBpZD0idGl0bGU3OTA1NCI+U2hlZXQuOTAyPC90aXRsZT4mI3hhOwkJCSYjeGE7CQkJCTxwYXRoIGlkPSJwYXRoNzkwNTYiIGlua3NjYXBlOmNvbm5lY3Rvci1jdXJ2YXR1cmU9IjAiIHN0eWxlPSJmaWxsOiNFNEU0RTQ7c3Ryb2tlOiM1NTZBOEE7c3Ryb2tlLXdpZHRoOjAuNzU7c3Ryb2tlLWxpbmVjYXA6cm91bmQ7c3Ryb2tlLWxpbmVqb2luOnJvdW5kO3N0cm9rZS1taXRlcmxpbWl0OjM7IiBkPSIgICAgIE0yLjgzLDY1LjZMMi44NSw2MWwwLjU0LTAuMzV2NS40TDAsNjguMjV2LTAuNzhMMi44Myw2NS42eiIvPiYjeGE7CQk8L2c+JiN4YTsJCTxnIGlkPSJzaGFwZTkwMy05MCIgdHJhbnNmb3JtPSJ0cmFuc2xhdGUoMzIuNTc2MiwtMTguNzYyMikiPiYjeGE7CQkJPHRpdGxlIGlkPSJ0aXRsZTc5MDU5Ij5TaGVldC45MDM8L3RpdGxlPiYjeGE7CQkJJiN4YTsJCQkJPHBhdGggaWQ9InBhdGg3OTA2MSIgaW5rc2NhcGU6Y29ubmVjdG9yLWN1cnZhdHVyZT0iMCIgc3R5bGU9ImZpbGw6I0U0RTRFNDtzdHJva2U6IzU1NkE4QTtzdHJva2Utd2lkdGg6MC43NTtzdHJva2UtbGluZWNhcDpyb3VuZDtzdHJva2UtbGluZWpvaW46cm91bmQ7c3Ryb2tlLW1pdGVybGltaXQ6MzsiIGQ9IiAgICAgTTIuODMsNjUuNjJsMC4wMi00LjZsMC41NC0wLjM3djUuNDJMMCw2OC4yNXYtMC43OEwyLjgzLDY1LjYyeiIvPiYjeGE7CQk8L2c+JiN4YTsJCTxnIGlkPSJzaGFwZTkwNC05MiIgdHJhbnNmb3JtPSJ0cmFuc2xhdGUoMzIuNTc2MiwtMTAuOTkyKSI+JiN4YTsJCQk8dGl0bGUgaWQ9InRpdGxlNzkwNjQiPlNoZWV0LjkwNDwvdGl0bGU+JiN4YTsJCQkmI3hhOwkJCQk8cGF0aCBpZD0icGF0aDc5MDY2IiBpbmtzY2FwZTpjb25uZWN0b3ItY3VydmF0dXJlPSIwIiBzdHlsZT0iZmlsbDojRTRFNEU0O3N0cm9rZTojNTU2QThBO3N0cm9rZS13aWR0aDowLjc1O3N0cm9rZS1saW5lY2FwOnJvdW5kO3N0cm9rZS1saW5lam9pbjpyb3VuZDtzdHJva2UtbWl0ZXJsaW1pdDozOyIgZD0iICAgICBNMi44Myw2NS42MmwwLjAyLTQuNjRsMC41NC0wLjMzdjUuNDJMMCw2OC4yNXYtMC43OEwyLjgzLDY1LjYyeiIvPiYjeGE7CQk8L2c+JiN4YTsJCTxnIGlkPSJzaGFwZTkwNS05NCIgdHJhbnNmb3JtPSJ0cmFuc2xhdGUoMjcuOTgzMSwtMzEuNDU5OSkiPiYjeGE7CQkJPHRpdGxlIGlkPSJ0aXRsZTc5MDY5Ij5TaGVldC45MDU8L3RpdGxlPiYjeGE7CQkJJiN4YTsJCQkJPHBhdGggaWQ9InBhdGg3OTA3MSIgaW5rc2NhcGU6Y29ubmVjdG9yLWN1cnZhdHVyZT0iMCIgc3R5bGU9ImZpbGw6I0U0RTRFNDtzdHJva2U6IzU1NkE4QTtzdHJva2Utd2lkdGg6MC43NTtzdHJva2UtbGluZWNhcDpyb3VuZDtzdHJva2UtbGluZWpvaW46cm91bmQ7c3Ryb2tlLW1pdGVybGltaXQ6MzsiIGQ9IiAgICAgTTIuODMsNjUuNnYtNC42MmwwLjU2LTAuMzN2NS40TDAsNjguMjV2LTAuNzhMMi44Myw2NS42eiIvPiYjeGE7CQk8L2c+JiN4YTsJCTxnIGlkPSJzaGFwZTkwNi05NiIgdHJhbnNmb3JtPSJ0cmFuc2xhdGUoMjcuOTgzMSwtMjMuNjg5NykiPiYjeGE7CQkJPHRpdGxlIGlkPSJ0aXRsZTc5MDc0Ij5TaGVldC45MDY8L3RpdGxlPiYjeGE7CQkJJiN4YTsJCQkJPHBhdGggaWQ9InBhdGg3OTA3NiIgaW5rc2NhcGU6Y29ubmVjdG9yLWN1cnZhdHVyZT0iMCIgc3R5bGU9ImZpbGw6I0U0RTRFNDtzdHJva2U6IzU1NkE4QTtzdHJva2Utd2lkdGg6MC43NTtzdHJva2UtbGluZWNhcDpyb3VuZDtzdHJva2UtbGluZWpvaW46cm91bmQ7c3Ryb2tlLW1pdGVybGltaXQ6MzsiIGQ9IiAgICAgTTIuODMsNjUuNnYtNC42MmwwLjU2LTAuMzN2NS40TDAsNjguMjV2LTAuODNMMi44Myw2NS42eiIvPiYjeGE7CQk8L2c+JiN4YTsJCTxnIGlkPSJzaGFwZTkwNy05OCIgdHJhbnNmb3JtPSJ0cmFuc2xhdGUoMjcuOTgzMSwtMTUuOTQzMikiPiYjeGE7CQkJPHRpdGxlIGlkPSJ0aXRsZTc5MDc5Ij5TaGVldC45MDc8L3RpdGxlPiYjeGE7CQkJJiN4YTsJCQkJPHBhdGggaWQ9InBhdGg3OTA4MSIgaW5rc2NhcGU6Y29ubmVjdG9yLWN1cnZhdHVyZT0iMCIgc3R5bGU9ImZpbGw6I0U0RTRFNDtzdHJva2U6IzU1NkE4QTtzdHJva2Utd2lkdGg6MC43NTtzdHJva2UtbGluZWNhcDpyb3VuZDtzdHJva2UtbGluZWpvaW46cm91bmQ7c3Ryb2tlLW1pdGVybGltaXQ6MzsiIGQ9IiAgICAgTTIuODMsNjUuNjJWNjFsMC41Ni0wLjM4djUuNDVMMCw2OC4yNXYtMC44MUwyLjgzLDY1LjYyeiIvPiYjeGE7CQk8L2c+JiN4YTsJCTxnIGlkPSJzaGFwZTkwOC0xMDAiIHRyYW5zZm9ybT0idHJhbnNsYXRlKDI3Ljk4MzEsLTguMTcyOTQpIj4mI3hhOwkJCTx0aXRsZSBpZD0idGl0bGU3OTA4NCI+U2hlZXQuOTA4PC90aXRsZT4mI3hhOwkJCSYjeGE7CQkJCTxwYXRoIGlkPSJwYXRoNzkwODYiIGlua3NjYXBlOmNvbm5lY3Rvci1jdXJ2YXR1cmU9IjAiIHN0eWxlPSJmaWxsOiNFNEU0RTQ7c3Ryb2tlOiM1NTZBOEE7c3Ryb2tlLXdpZHRoOjAuNzU7c3Ryb2tlLWxpbmVjYXA6cm91bmQ7c3Ryb2tlLWxpbmVqb2luOnJvdW5kO3N0cm9rZS1taXRlcmxpbWl0OjM7IiBkPSIgICAgIE0yLjgzLDY1LjYydi00LjY0bDAuNTYtMC4zNnY1LjQ1TDAsNjguMjV2LTAuODFMMi44Myw2NS42MnoiLz4mI3hhOwkJPC9nPiYjeGE7CQk8ZyBpZD0ic2hhcGU5MDktMTAyIiB0cmFuc2Zvcm09InRyYW5zbGF0ZSgyMy4zODk5LC0yOC42NDA4KSI+JiN4YTsJCQk8dGl0bGUgaWQ9InRpdGxlNzkwODkiPlNoZWV0LjkwOTwvdGl0bGU+JiN4YTsJCQkmI3hhOwkJCQk8cGF0aCBpZD0icGF0aDc5MDkxIiBpbmtzY2FwZTpjb25uZWN0b3ItY3VydmF0dXJlPSIwIiBzdHlsZT0iZmlsbDojRTRFNEU0O3N0cm9rZTojNTU2QThBO3N0cm9rZS13aWR0aDowLjc1O3N0cm9rZS1saW5lY2FwOnJvdW5kO3N0cm9rZS1saW5lam9pbjpyb3VuZDtzdHJva2UtbWl0ZXJsaW1pdDozOyIgZD0iICAgICBNMi44Myw2NS42di00LjYybDAuNTYtMC4zNnY1LjRMMCw2OC4yNXYtMC44MUwyLjgzLDY1LjZ6Ii8+JiN4YTsJCTwvZz4mI3hhOwkJPGcgaWQ9InNoYXBlOTEwLTEwNCIgdHJhbnNmb3JtPSJ0cmFuc2xhdGUoMjMuMzg5OSwtMjAuODcwNikiPiYjeGE7CQkJPHRpdGxlIGlkPSJ0aXRsZTc5MDk0Ij5TaGVldC45MTA8L3RpdGxlPiYjeGE7CQkJJiN4YTsJCQkJPHBhdGggaWQ9InBhdGg3OTA5NiIgaW5rc2NhcGU6Y29ubmVjdG9yLWN1cnZhdHVyZT0iMCIgc3R5bGU9ImZpbGw6I0U0RTRFNDtzdHJva2U6IzU1NkE4QTtzdHJva2Utd2lkdGg6MC43NTtzdHJva2UtbGluZWNhcDpyb3VuZDtzdHJva2UtbGluZWpvaW46cm91bmQ7c3Ryb2tlLW1pdGVybGltaXQ6MzsiIGQ9IiAgICAgTTIuODMsNjUuNnYtNC42MmwwLjU2LTAuMzh2NS40MkwwLDY4LjI1di0wLjgzTDIuODMsNjUuNnoiLz4mI3hhOwkJPC9nPiYjeGE7CQk8ZyBpZD0ic2hhcGU5MTEtMTA2IiB0cmFuc2Zvcm09InRyYW5zbGF0ZSgyMy4zODk5LC0xMy4xNDc4KSI+JiN4YTsJCQk8dGl0bGUgaWQ9InRpdGxlNzkwOTkiPlNoZWV0LjkxMTwvdGl0bGU+JiN4YTsJCQkmI3hhOwkJCQk8cGF0aCBpZD0icGF0aDc5MTAxIiBpbmtzY2FwZTpjb25uZWN0b3ItY3VydmF0dXJlPSIwIiBzdHlsZT0iZmlsbDojRTRFNEU0O3N0cm9rZTojNTU2QThBO3N0cm9rZS13aWR0aDowLjc1O3N0cm9rZS1saW5lY2FwOnJvdW5kO3N0cm9rZS1saW5lam9pbjpyb3VuZDtzdHJva2UtbWl0ZXJsaW1pdDozOyIgZD0iICAgICBNMi44Myw2NS42NHYtNC42MmwwLjU2LTAuMzd2NS40MkwwLDY4LjI1di0wLjc4TDIuODMsNjUuNjR6Ii8+JiN4YTsJCTwvZz4mI3hhOwkJPGcgaWQ9InNoYXBlOTEyLTEwOCIgdHJhbnNmb3JtPSJ0cmFuc2xhdGUoMjMuMzg5OSwtNS4zNzc1NikiPiYjeGE7CQkJPHRpdGxlIGlkPSJ0aXRsZTc5MTA0Ij5TaGVldC45MTI8L3RpdGxlPiYjeGE7CQkJJiN4YTsJCQkJPHBhdGggaWQ9InBhdGg3OTEwNiIgaW5rc2NhcGU6Y29ubmVjdG9yLWN1cnZhdHVyZT0iMCIgc3R5bGU9ImZpbGw6I0U0RTRFNDtzdHJva2U6IzU1NkE4QTtzdHJva2Utd2lkdGg6MC43NTtzdHJva2UtbGluZWNhcDpyb3VuZDtzdHJva2UtbGluZWpvaW46cm91bmQ7c3Ryb2tlLW1pdGVybGltaXQ6MzsiIGQ9IiAgICAgTTIuODMsNjUuNjRWNjFsMC41Ni0wLjM1djUuNDJMMCw2OC4yNXYtMC43OEwyLjgzLDY1LjY0eiIvPiYjeGE7CQk8L2c+JiN4YTsJCTxnIGlkPSJzaGFwZTkxMy0xMTAiIHRyYW5zZm9ybT0idHJhbnNsYXRlKDIxLjM4NzcsLTUyLjk0NjUpIj4mI3hhOwkJCTx0aXRsZSBpZD0idGl0bGU3OTEwOSI+U2hlZXQuOTEzPC90aXRsZT4mI3hhOwkJCSYjeGE7CQkJCTxwYXRoIGlkPSJwYXRoNzkxMTEiIGlua3NjYXBlOmNvbm5lY3Rvci1jdXJ2YXR1cmU9IjAiIHN0eWxlPSJmaWxsOiNCNkIzQjE7c3Ryb2tlOiM1NTZBOEE7c3Ryb2tlLXdpZHRoOjAuNzU7c3Ryb2tlLWxpbmVjYXA6cm91bmQ7c3Ryb2tlLWxpbmVqb2luOnJvdW5kO3N0cm9rZS1taXRlcmxpbWl0OjM7IiBkPSIgICAgIE0wLDU0LjMydjMuMTNsMTYuNTYsMTAuOGwyLjM4LTEuNTZMMCw1NC4zMnoiLz4mI3hhOwkJPC9nPiYjeGE7CQk8ZyBpZD0ic2hhcGU5MTQtMTEyIiB0cmFuc2Zvcm09InRyYW5zbGF0ZSgzNy45NDY3LC01Mi45NDY1KSI+JiN4YTsJCQk8dGl0bGUgaWQ9InRpdGxlNzkxMTQiPlNoZWV0LjkxNDwvdGl0bGU+JiN4YTsJCQkmI3hhOwkJCQk8cGF0aCBpZD0icGF0aDc5MTE2IiBpbmtzY2FwZTpjb25uZWN0b3ItY3VydmF0dXJlPSIwIiBzdHlsZT0iZmlsbDojRjRGMkYyO3N0cm9rZTojNTU2QThBO3N0cm9rZS13aWR0aDowLjc1O3N0cm9rZS1saW5lY2FwOnJvdW5kO3N0cm9rZS1saW5lam9pbjpyb3VuZDtzdHJva2UtbWl0ZXJsaW1pdDozOyIgZD0iICAgICBNMi4zOCw2Ni42OUwwLDY4LjI1bDAsMGwyLjQtMS41NEwyLjM4LDY2LjY5eiIvPiYjeGE7CQk8L2c+JiN4YTsJCTxnIGlkPSJzaGFwZTkxNS0xMTQiIHRyYW5zZm9ybT0idHJhbnNsYXRlKDIuMzc5MDMsLTUyLjk3MDEpIj4mI3hhOwkJCTx0aXRsZSBpZD0idGl0bGU3OTExOSI+U2hlZXQuOTE1PC90aXRsZT4mI3hhOwkJCSYjeGE7CQkJCTxwYXRoIGlkPSJwYXRoNzkxMjEiIGlua3NjYXBlOmNvbm5lY3Rvci1jdXJ2YXR1cmU9IjAiIHN0eWxlPSJmaWxsOiM5NjkyOEY7c3Ryb2tlOiM1NTZBOEE7c3Ryb2tlLXdpZHRoOjAuNzU7c3Ryb2tlLWxpbmVjYXA6cm91bmQ7c3Ryb2tlLWxpbmVqb2luOnJvdW5kO3N0cm9rZS1taXRlcmxpbWl0OjM7IiBkPSIgICAgIE0yLjQzLDY4LjI1bDE2LjU4LTEwLjh2LTMuMTNMMCw2Ni43MUwyLjQzLDY4LjI1eiIvPiYjeGE7CQk8L2c+JiN4YTsJCTxnIGlkPSJzaGFwZTkxNi0xMTYiIHRyYW5zZm9ybT0idHJhbnNsYXRlKDM3LjE0NTksLTM3Ljg3OTgpIj4mI3hhOwkJCTx0aXRsZSBpZD0idGl0bGU3OTEyNCI+U2hlZXQuOTE2PC90aXRsZT4mI3hhOwkJCSYjeGE7CQkJCTxwYXRoIGlkPSJwYXRoNzkxMjYiIGlua3NjYXBlOmNvbm5lY3Rvci1jdXJ2YXR1cmU9IjAiIHN0eWxlPSJmaWxsOiM1MDlEQkY7c3Ryb2tlOiM1NTZBOEE7c3Ryb2tlLXdpZHRoOjAuNzU7c3Ryb2tlLWxpbmVjYXA6cm91bmQ7c3Ryb2tlLWxpbmVqb2luOnJvdW5kO3N0cm9rZS1taXRlcmxpbWl0OjM7IiBkPSIgICAgIE0yLjg3LDYxLjc4bC0yLjgyLDEuODNMMCw2OC4yNWwyLjg3LTEuODJWNjEuNzh6Ii8+JiN4YTsJCTwvZz4mI3hhOwkJPGcgaWQ9InNoYXBlOTE3LTExOCIgdHJhbnNmb3JtPSJ0cmFuc2xhdGUoMzcuMTQ1OSwtMzAuMTA5NikiPiYjeGE7CQkJPHRpdGxlIGlkPSJ0aXRsZTc5MTI5Ij5TaGVldC45MTc8L3RpdGxlPiYjeGE7CQkJJiN4YTsJCQkJPHBhdGggaWQ9InBhdGg3OTEzMSIgaW5rc2NhcGU6Y29ubmVjdG9yLWN1cnZhdHVyZT0iMCIgc3R5bGU9ImZpbGw6IzUwOURCRjtzdHJva2U6IzU1NkE4QTtzdHJva2Utd2lkdGg6MC43NTtzdHJva2UtbGluZWNhcDpyb3VuZDtzdHJva2UtbGluZWpvaW46cm91bmQ7c3Ryb2tlLW1pdGVybGltaXQ6MzsiIGQ9IiAgICAgTTIuODcsNjEuNzhsLTIuODIsMS44M0wwLDY4LjI1bDIuODctMS44NVY2MS43OHoiLz4mI3hhOwkJPC9nPiYjeGE7CQk8ZyBpZD0ic2hhcGU5MTgtMTIwIiB0cmFuc2Zvcm09InRyYW5zbGF0ZSgzNy4xNDU5LC0yMi4zNjMxKSI+JiN4YTsJCQk8dGl0bGUgaWQ9InRpdGxlNzkxMzQiPlNoZWV0LjkxODwvdGl0bGU+JiN4YTsJCQkmI3hhOwkJCQk8cGF0aCBpZD0icGF0aDc5MTM2IiBpbmtzY2FwZTpjb25uZWN0b3ItY3VydmF0dXJlPSIwIiBzdHlsZT0iZmlsbDojNTA5REJGO3N0cm9rZTojNTU2QThBO3N0cm9rZS13aWR0aDowLjc1O3N0cm9rZS1saW5lY2FwOnJvdW5kO3N0cm9rZS1saW5lam9pbjpyb3VuZDtzdHJva2UtbWl0ZXJsaW1pdDozOyIgZD0iICAgICBNMi44Nyw2MS44MWwtMi44MiwxLjgyTDAsNjguMjVsMi44Ny0xLjgyVjYxLjgxeiIvPiYjeGE7CQk8L2c+JiN4YTsJCTxnIGlkPSJzaGFwZTkxOS0xMjIiIHRyYW5zZm9ybT0idHJhbnNsYXRlKDM3LjE0NTksLTE0LjU5MjgpIj4mI3hhOwkJCTx0aXRsZSBpZD0idGl0bGU3OTEzOSI+U2hlZXQuOTE5PC90aXRsZT4mI3hhOwkJCSYjeGE7CQkJCTxwYXRoIGlkPSJwYXRoNzkxNDEiIGlua3NjYXBlOmNvbm5lY3Rvci1jdXJ2YXR1cmU9IjAiIHN0eWxlPSJmaWxsOiM1MDlEQkY7c3Ryb2tlOiM1NTZBOEE7c3Ryb2tlLXdpZHRoOjAuNzU7c3Ryb2tlLWxpbmVjYXA6cm91bmQ7c3Ryb2tlLWxpbmVqb2luOnJvdW5kO3N0cm9rZS1taXRlcmxpbWl0OjM7IiBkPSIgICAgIE0yLjg3LDYxLjc4bC0yLjgyLDEuODVMMCw2OC4yNWwyLjg3LTEuODJWNjEuNzh6Ii8+JiN4YTsJCTwvZz4mI3hhOwkJPGcgaWQ9InNoYXBlOTIwLTEyNCIgdHJhbnNmb3JtPSJ0cmFuc2xhdGUoMzIuNTc2MiwtMzUuMDYwNykiPiYjeGE7CQkJPHRpdGxlIGlkPSJ0aXRsZTc5MTQ0Ij5TaGVldC45MjA8L3RpdGxlPiYjeGE7CQkJJiN4YTsJCQkJPHBhdGggaWQ9InBhdGg3OTE0NiIgaW5rc2NhcGU6Y29ubmVjdG9yLWN1cnZhdHVyZT0iMCIgc3R5bGU9ImZpbGw6IzUwOURCRjtzdHJva2U6IzU1NkE4QTtzdHJva2Utd2lkdGg6MC43NTtzdHJva2UtbGluZWNhcDpyb3VuZDtzdHJva2UtbGluZWpvaW46cm91bmQ7c3Ryb2tlLW1pdGVybGltaXQ6MzsiIGQ9IiAgICAgTTIuODUsNjEuNzhMMCw2My42MXY0LjY0bDIuODMtMS44MkwyLjg1LDYxLjc4eiIvPiYjeGE7CQk8L2c+JiN4YTsJCTxnIGlkPSJzaGFwZTkyMS0xMjYiIHRyYW5zZm9ybT0idHJhbnNsYXRlKDMyLjU3NjIsLTI3LjI5MDUpIj4mI3hhOwkJCTx0aXRsZSBpZD0idGl0bGU3OTE0OSI+U2hlZXQuOTIxPC90aXRsZT4mI3hhOwkJCSYjeGE7CQkJCTxwYXRoIGlkPSJwYXRoNzkxNTEiIGlua3NjYXBlOmNvbm5lY3Rvci1jdXJ2YXR1cmU9IjAiIHN0eWxlPSJmaWxsOiM1MDlEQkY7c3Ryb2tlOiM1NTZBOEE7c3Ryb2tlLXdpZHRoOjAuNzU7c3Ryb2tlLWxpbmVjYXA6cm91bmQ7c3Ryb2tlLWxpbmVqb2luOnJvdW5kO3N0cm9rZS1taXRlcmxpbWl0OjM7IiBkPSIgICAgIE0yLjg1LDYxLjc4TDAsNjMuNjF2NC42NGwyLjgzLTEuODdMMi44NSw2MS43OHoiLz4mI3hhOwkJPC9nPiYjeGE7CQk8ZyBpZD0ic2hhcGU5MjItMTI4IiB0cmFuc2Zvcm09InRyYW5zbGF0ZSgzMi41NzYyLC0xOS41NDQpIj4mI3hhOwkJCTx0aXRsZSBpZD0idGl0bGU3OTE1NCI+U2hlZXQuOTIyPC90aXRsZT4mI3hhOwkJCSYjeGE7CQkJCTxwYXRoIGlkPSJwYXRoNzkxNTYiIGlua3NjYXBlOmNvbm5lY3Rvci1jdXJ2YXR1cmU9IjAiIHN0eWxlPSJmaWxsOiM1MDlEQkY7c3Ryb2tlOiM1NTZBOEE7c3Ryb2tlLXdpZHRoOjAuNzU7c3Ryb2tlLWxpbmVjYXA6cm91bmQ7c3Ryb2tlLWxpbmVqb2luOnJvdW5kO3N0cm9rZS1taXRlcmxpbWl0OjM7IiBkPSIgICAgIE0yLjg1LDYxLjgxTDAsNjMuNjN2NC42MmwyLjgzLTEuODVMMi44NSw2MS44MXoiLz4mI3hhOwkJPC9nPiYjeGE7CQk8ZyBpZD0ic2hhcGU5MjMtMTMwIiB0cmFuc2Zvcm09InRyYW5zbGF0ZSgzMi41NzYyLC0xMS43NzM4KSI+JiN4YTsJCQk8dGl0bGUgaWQ9InRpdGxlNzkxNTkiPlNoZWV0LjkyMzwvdGl0bGU+JiN4YTsJCQkmI3hhOwkJCQk8cGF0aCBpZD0icGF0aDc5MTYxIiBpbmtzY2FwZTpjb25uZWN0b3ItY3VydmF0dXJlPSIwIiBzdHlsZT0iZmlsbDojNTA5REJGO3N0cm9rZTojNTU2QThBO3N0cm9rZS13aWR0aDowLjc1O3N0cm9rZS1saW5lY2FwOnJvdW5kO3N0cm9rZS1saW5lam9pbjpyb3VuZDtzdHJva2UtbWl0ZXJsaW1pdDozOyIgZD0iICAgICBNMi44NSw2MS43NkwwLDYzLjYzdjQuNjJsMi44My0xLjg1TDIuODUsNjEuNzZ6Ii8+JiN4YTsJCTwvZz4mI3hhOwkJPGcgaWQ9InNoYXBlOTI0LTEzMiIgdHJhbnNmb3JtPSJ0cmFuc2xhdGUoMjcuOTgzMSwtMzIuMjQxNykiPiYjeGE7CQkJPHRpdGxlIGlkPSJ0aXRsZTc5MTY0Ij5TaGVldC45MjQ8L3RpdGxlPiYjeGE7CQkJJiN4YTsJCQkJPHBhdGggaWQ9InBhdGg3OTE2NiIgaW5rc2NhcGU6Y29ubmVjdG9yLWN1cnZhdHVyZT0iMCIgc3R5bGU9ImZpbGw6IzUwOURCRjtzdHJva2U6IzU1NkE4QTtzdHJva2Utd2lkdGg6MC43NTtzdHJva2UtbGluZWNhcDpyb3VuZDtzdHJva2UtbGluZWpvaW46cm91bmQ7c3Ryb2tlLW1pdGVybGltaXQ6MzsiIGQ9IiAgICAgTTIuODMsNjEuNzZMMCw2My42MXY0LjY0bDIuODMtMS44N1Y2MS43NnoiLz4mI3hhOwkJPC9nPiYjeGE7CQk8ZyBpZD0ic2hhcGU5MjUtMTM0IiB0cmFuc2Zvcm09InRyYW5zbGF0ZSgyNy45ODMxLC0yNC41MTg4KSI+JiN4YTsJCQk8dGl0bGUgaWQ9InRpdGxlNzkxNjkiPlNoZWV0LjkyNTwvdGl0bGU+JiN4YTsJCQkmI3hhOwkJCQk8cGF0aCBpZD0icGF0aDc5MTcxIiBpbmtzY2FwZTpjb25uZWN0b3ItY3VydmF0dXJlPSIwIiBzdHlsZT0iZmlsbDojNTA5REJGO3N0cm9rZTojNTU2QThBO3N0cm9rZS13aWR0aDowLjc1O3N0cm9rZS1saW5lY2FwOnJvdW5kO3N0cm9rZS1saW5lam9pbjpyb3VuZDtzdHJva2UtbWl0ZXJsaW1pdDozOyIgZD0iICAgICBNMi44Myw2MS44MUwwLDYzLjY1djQuNmwyLjgzLTEuODJWNjEuODF6Ii8+JiN4YTsJCTwvZz4mI3hhOwkJPGcgaWQ9InNoYXBlOTI2LTEzNiIgdHJhbnNmb3JtPSJ0cmFuc2xhdGUoMjcuOTgzMSwtMTYuNzQ4NikiPiYjeGE7CQkJPHRpdGxlIGlkPSJ0aXRsZTc5MTc0Ij5TaGVldC45MjY8L3RpdGxlPiYjeGE7CQkJJiN4YTsJCQkJPHBhdGggaWQ9InBhdGg3OTE3NiIgaW5rc2NhcGU6Y29ubmVjdG9yLWN1cnZhdHVyZT0iMCIgc3R5bGU9ImZpbGw6IzUwOURCRjtzdHJva2U6IzU1NkE4QTtzdHJva2Utd2lkdGg6MC43NTtzdHJva2UtbGluZWNhcDpyb3VuZDtzdHJva2UtbGluZWpvaW46cm91bmQ7c3Ryb2tlLW1pdGVybGltaXQ6MzsiIGQ9IiAgICAgTTIuODMsNjEuODFMMCw2My42NXY0LjZsMi44My0xLjgyVjYxLjgxeiIvPiYjeGE7CQk8L2c+JiN4YTsJCTxnIGlkPSJzaGFwZTkyNy0xMzgiIHRyYW5zZm9ybT0idHJhbnNsYXRlKDI3Ljk4MzEsLTguOTc4MzkpIj4mI3hhOwkJCTx0aXRsZSBpZD0idGl0bGU3OTE3OSI+U2hlZXQuOTI3PC90aXRsZT4mI3hhOwkJCSYjeGE7CQkJCTxwYXRoIGlkPSJwYXRoNzkxODEiIGlua3NjYXBlOmNvbm5lY3Rvci1jdXJ2YXR1cmU9IjAiIHN0eWxlPSJmaWxsOiM1MDlEQkY7c3Ryb2tlOiM1NTZBOEE7c3Ryb2tlLXdpZHRoOjAuNzU7c3Ryb2tlLWxpbmVjYXA6cm91bmQ7c3Ryb2tlLWxpbmVqb2luOnJvdW5kO3N0cm9rZS1taXRlcmxpbWl0OjM7IiBkPSIgICAgIE0yLjgzLDYxLjc4TDAsNjMuNjV2NC42bDIuODMtMS44MlY2MS43OHoiLz4mI3hhOwkJPC9nPiYjeGE7CQk8ZyBpZD0ic2hhcGU5MjgtMTQwIiB0cmFuc2Zvcm09InRyYW5zbGF0ZSgyMy4zODk5LC0yOS40NDYzKSI+JiN4YTsJCQk8dGl0bGUgaWQ9InRpdGxlNzkxODQiPlNoZWV0LjkyODwvdGl0bGU+JiN4YTsJCQkmI3hhOwkJCQk8cGF0aCBpZD0icGF0aDc5MTg2IiBpbmtzY2FwZTpjb25uZWN0b3ItY3VydmF0dXJlPSIwIiBzdHlsZT0iZmlsbDojNTA5REJGO3N0cm9rZTojNTU2QThBO3N0cm9rZS13aWR0aDowLjc1O3N0cm9rZS1saW5lY2FwOnJvdW5kO3N0cm9rZS1saW5lam9pbjpyb3VuZDtzdHJva2UtbWl0ZXJsaW1pdDozOyIgZD0iICAgICBNMi44Myw2MS43OEwwLDYzLjYxdjQuNjRsMi44My0xLjg1VjYxLjc4eiIvPiYjeGE7CQk8L2c+JiN4YTsJCTxnIGlkPSJzaGFwZTkyOS0xNDIiIHRyYW5zZm9ybT0idHJhbnNsYXRlKDIzLjM4OTksLTIxLjY5OTgpIj4mI3hhOwkJCTx0aXRsZSBpZD0idGl0bGU3OTE4OSI+U2hlZXQuOTI5PC90aXRsZT4mI3hhOwkJCSYjeGE7CQkJCTxwYXRoIGlkPSJwYXRoNzkxOTEiIGlua3NjYXBlOmNvbm5lY3Rvci1jdXJ2YXR1cmU9IjAiIHN0eWxlPSJmaWxsOiM1MDlEQkY7c3Ryb2tlOiM1NTZBOEE7c3Ryb2tlLXdpZHRoOjAuNzU7c3Ryb2tlLWxpbmVjYXA6cm91bmQ7c3Ryb2tlLWxpbmVqb2luOnJvdW5kO3N0cm9rZS1taXRlcmxpbWl0OjM7IiBkPSIgICAgIE0yLjgzLDYxLjgxTDAsNjMuNjN2NC42MmwyLjgzLTEuODJWNjEuODF6Ii8+JiN4YTsJCTwvZz4mI3hhOwkJPGcgaWQ9InNoYXBlOTMwLTE0NCIgdHJhbnNmb3JtPSJ0cmFuc2xhdGUoMjMuMzg5OSwtMjEuNjc2MSkiPiYjeGE7CQkJPHRpdGxlIGlkPSJ0aXRsZTc5MTk0Ij5TaGVldC45MzA8L3RpdGxlPiYjeGE7CQkJJiN4YTsJCQkJPHBhdGggaWQ9InBhdGg3OTE5NiIgaW5rc2NhcGU6Y29ubmVjdG9yLWN1cnZhdHVyZT0iMCIgc3R5bGU9ImZpbGw6IzY3QzBFODtzdHJva2U6IzU1NkE4QTtzdHJva2Utd2lkdGg6MC43NTtzdHJva2UtbGluZWNhcDpyb3VuZDtzdHJva2UtbGluZWpvaW46cm91bmQ7c3Ryb2tlLW1pdGVybGltaXQ6MzsiIGQ9IiAgICAgTTIuODMsNjEuNzhMMi44Myw2MS43OHY0LjYyTDAsNjguMjN2MC4wMmwyLjgzLTEuODVWNjEuNzh6Ii8+JiN4YTsJCTwvZz4mI3hhOwkJPGcgaWQ9InNoYXBlOTMxLTE0NiIgdHJhbnNmb3JtPSJ0cmFuc2xhdGUoMjMuMzg5OSwtMTMuOTI5NSkiPiYjeGE7CQkJPHRpdGxlIGlkPSJ0aXRsZTc5MTk5Ij5TaGVldC45MzE8L3RpdGxlPiYjeGE7CQkJJiN4YTsJCQkJPHBhdGggaWQ9InBhdGg3OTIwMSIgaW5rc2NhcGU6Y29ubmVjdG9yLWN1cnZhdHVyZT0iMCIgc3R5bGU9ImZpbGw6IzUwOURCRjtzdHJva2U6IzU1NkE4QTtzdHJva2Utd2lkdGg6MC43NTtzdHJva2UtbGluZWNhcDpyb3VuZDtzdHJva2UtbGluZWpvaW46cm91bmQ7c3Ryb2tlLW1pdGVybGltaXQ6MzsiIGQ9IiAgICAgTTIuODMsNjEuODFMMCw2My42M3Y0LjYybDIuODMtMS44MlY2MS44MXoiLz4mI3hhOwkJPC9nPiYjeGE7CQk8ZyBpZD0ic2hhcGU5MzItMTQ4IiB0cmFuc2Zvcm09InRyYW5zbGF0ZSgyMy4zODk5LC0xMy45Mjk1KSI+JiN4YTsJCQk8dGl0bGUgaWQ9InRpdGxlNzkyMDQiPlNoZWV0LjkzMjwvdGl0bGU+JiN4YTsJCQkmI3hhOwkJCQk8cGF0aCBpZD0icGF0aDc5MjA2IiBpbmtzY2FwZTpjb25uZWN0b3ItY3VydmF0dXJlPSIwIiBzdHlsZT0iZmlsbDojNjdDMEU4O3N0cm9rZTojNTU2QThBO3N0cm9rZS13aWR0aDowLjc1O3N0cm9rZS1saW5lY2FwOnJvdW5kO3N0cm9rZS1saW5lam9pbjpyb3VuZDtzdHJva2UtbWl0ZXJsaW1pdDozOyIgZD0iICAgICBNMi44Myw2MS44MUwyLjgzLDYxLjgxdjQuNjJMMCw2OC4yNWwwLDBsMi44My0xLjgyVjYxLjgxeiIvPiYjeGE7CQk8L2c+JiN4YTsJCTxnIGlkPSJzaGFwZTkzMy0xNTAiIHRyYW5zZm9ybT0idHJhbnNsYXRlKDIzLjM4OTksLTYuMTU5MzIpIj4mI3hhOwkJCTx0aXRsZSBpZD0idGl0bGU3OTIwOSI+U2hlZXQuOTMzPC90aXRsZT4mI3hhOwkJCSYjeGE7CQkJCTxwYXRoIGlkPSJwYXRoNzkyMTEiIGlua3NjYXBlOmNvbm5lY3Rvci1jdXJ2YXR1cmU9IjAiIHN0eWxlPSJmaWxsOiM1MDlEQkY7c3Ryb2tlOiM1NTZBOEE7c3Ryb2tlLXdpZHRoOjAuNzU7c3Ryb2tlLWxpbmVjYXA6cm91bmQ7c3Ryb2tlLWxpbmVqb2luOnJvdW5kO3N0cm9rZS1taXRlcmxpbWl0OjM7IiBkPSIgICAgIE0yLjgzLDYxLjc4TDAsNjMuNjN2NC42MmwyLjgzLTEuODJWNjEuNzh6Ii8+JiN4YTsJCTwvZz4mI3hhOwkJPGcgaWQ9InNoYXBlOTM0LTE1MiIgdHJhbnNmb3JtPSJ0cmFuc2xhdGUoMjMuMzg5OSwtNi4xNTkzMikiPiYjeGE7CQkJPHRpdGxlIGlkPSJ0aXRsZTc5MjE0Ij5TaGVldC45MzQ8L3RpdGxlPiYjeGE7CQkJJiN4YTsJCQkJPHBhdGggaWQ9InBhdGg3OTIxNiIgaW5rc2NhcGU6Y29ubmVjdG9yLWN1cnZhdHVyZT0iMCIgc3R5bGU9ImZpbGw6IzY3QzBFODtzdHJva2U6IzU1NkE4QTtzdHJva2Utd2lkdGg6MC43NTtzdHJva2UtbGluZWNhcDpyb3VuZDtzdHJva2UtbGluZWpvaW46cm91bmQ7c3Ryb2tlLW1pdGVybGltaXQ6MzsiIGQ9IiAgICAgTTIuODMsNjEuNzhMMi44Myw2MS43OHY0LjY1TDAsNjguMjVsMCwwbDIuODMtMS44MlY2MS43OHoiLz4mI3hhOwkJPC9nPiYjeGE7CQk8ZyBpZD0ic2hhcGU5MzUtMTU0IiB0cmFuc2Zvcm09InRyYW5zbGF0ZSgyLjc1NTkxLC00NS44NjAzKSI+JiN4YTsJCQk8dGl0bGUgaWQ9InRpdGxlNzkyMTkiPlNoZWV0LjkzNTwvdGl0bGU+JiN4YTsJCQkmI3hhOwkJCQk8cGF0aCBpZD0icGF0aDc5MjIxIiBpbmtzY2FwZTpjb25uZWN0b3ItY3VydmF0dXJlPSIwIiBzdHlsZT0iZmlsbDojNTU2QThBO3N0cm9rZTojNTU2QThBO3N0cm9rZS13aWR0aDowLjc1O3N0cm9rZS1saW5lY2FwOnJvdW5kO3N0cm9rZS1saW5lam9pbjpyb3VuZDtzdHJva2UtbWl0ZXJsaW1pdDozOyIgZD0iICAgICBNMS4wOCw2OC4wNmMtMC4zMy0wLjIyLTAuNjEtMC41LTAuOC0wLjkzQzAuMDksNjYuNzUsMCw2Ni4zOCwwLDY1Ljk1YzAtMC40NSwwLjA5LTAuNzQsMC4yOC0wLjg1YzAuMjQtMC4xNSwwLjQ3LTAuMDcsMC44NSwwLjE0ICAgICBjMC4zMywwLjE5LDAuNTcsMC41MiwwLjc1LDAuOWMwLjI0LDAuMzgsMC4zMywwLjc4LDAuMzMsMS4xOGMwLDAuNDUtMC4wOSwwLjc0LTAuMzMsMC44NkMxLjcsNjguMzIsMS40MSw2OC4yNywxLjA4LDY4LjA2eiAgICAgIE0xLjExLDY1LjYyYy0wLjIxLTAuMTItMC4zOC0wLjE0LTAuNS0wLjA1Yy0wLjE2LDAuMTItMC4yMywwLjMxLTAuMjMsMC42MmMwLDAuMjgsMC4wNywwLjYxLDAuMTksMC44NSAgICAgYzAuMTYsMC4yOCwwLjMzLDAuNDcsMC41MSwwLjYxYzAuMjIsMC4xNSwwLjQsMC4xOSwwLjUyLDAuMWMwLjE0LTAuMSwwLjE5LTAuMzMsMC4xOS0wLjY0cy0wLjA1LTAuNjQtMC4xOS0wLjg4ICAgICBDMS40OCw2NS45NywxLjMyLDY1Ljc2LDEuMTEsNjUuNjJ6Ii8+JiN4YTsJCTwvZz4mI3hhOwkJPGcgaWQ9InNoYXBlOTM2LTE1NiIgdHJhbnNmb3JtPSJ0cmFuc2xhdGUoNS4zNzA0OSwtNDMuODQ5NikiPiYjeGE7CQkJPHRpdGxlIGlkPSJ0aXRsZTc5MjI0Ij5TaGVldC45MzY8L3RpdGxlPiYjeGE7CQkJJiN4YTsJCQkJPHBhdGggaWQ9InBhdGg3OTIyNiIgaW5rc2NhcGU6Y29ubmVjdG9yLWN1cnZhdHVyZT0iMCIgc3R5bGU9ImZpbGw6IzU1NkE4QTtzdHJva2U6IzU1NkE4QTtzdHJva2Utd2lkdGg6MC43NTtzdHJva2UtbGluZWNhcDpyb3VuZDtzdHJva2UtbGluZWpvaW46cm91bmQ7c3Ryb2tlLW1pdGVybGltaXQ6MzsiIGQ9IiAgICAgTTEuOTYsNjguMjVjLTAuNDMtMC4yNC0wLjQzLTAuMjQtMC40My0wLjI0Yy0xLjA4LTIuNzQtMS4wOC0yLjc0LTEuMDgtMi43NGMtMC4wNS0wLjA4LTAuMDctMC4xNS0wLjA3LTAuMTkgICAgIGMwLTAuMDUsMC0wLjA1LDAtMC4wNWMwLDAuMDcsMCwwLjI0LDAsMC40MmMwLDEuODEsMCwxLjgxLDAsMS44MUMwLDY2Ljk5LDAsNjYuOTksMCw2Ni45OWMwLTIuNzQsMC0yLjc0LDAtMi43NCAgICAgYzAuNDUsMC4yOCwwLjQ1LDAuMjgsMC40NSwwLjI4YzEuMDYsMi42OCwxLjA2LDIuNjgsMS4wNiwyLjY4YzAuMDcsMC4wOSwwLjA3LDAuMTYsMC4wOSwwLjIzbDAsMGMwLTAuMDksMC0wLjIzLDAtMC4zNyAgICAgYzAtMS43OCwwLTEuNzgsMC0xLjc4YzAuMzYsMC4yMSwwLjM2LDAuMjEsMC4zNiwwLjIxVjY4LjI1eiIvPiYjeGE7CQk8L2c+JiN4YTsJCTxnIGlkPSJzaGFwZTkzNy0xNTgiIHRyYW5zZm9ybT0idHJhbnNsYXRlKDcuODQzNzQsLTQzLjg0OTYpIj4mI3hhOwkJCTx0aXRsZSBpZD0idGl0bGU3OTIyOSI+U2hlZXQuOTM3PC90aXRsZT4mI3hhOwkJCSYjeGE7CQkJCTxwYXRoIGlkPSJwYXRoNzkyMzEiIGlua3NjYXBlOmNvbm5lY3Rvci1jdXJ2YXR1cmU9IjAiIHN0eWxlPSJmaWxsOiM1NTZBOEE7c3Ryb2tlOiM1NTZBOEE7c3Ryb2tlLXdpZHRoOjAuNzU7c3Ryb2tlLWxpbmVjYXA6cm91bmQ7c3Ryb2tlLWxpbmVqb2luOnJvdW5kO3N0cm9rZS1taXRlcmxpbWl0OjM7IiBkPSIgICAgIE0wLjksNjguMjVMMCw2Ny42OHYtMC4zMWwwLjksMC41N1Y2OC4yNXoiLz4mI3hhOwkJPC9nPiYjeGE7CQk8ZyBpZD0ic2hhcGU5MzgtMTYwIiB0cmFuc2Zvcm09InRyYW5zbGF0ZSg5LjIwOTkyLC00Mi4zNTcyKSI+JiN4YTsJCQk8dGl0bGUgaWQ9InRpdGxlNzkyMzQiPlNoZWV0LjkzODwvdGl0bGU+JiN4YTsJCQkmI3hhOwkJCQk8cGF0aCBpZD0icGF0aDc5MjM2IiBpbmtzY2FwZTpjb25uZWN0b3ItY3VydmF0dXJlPSIwIiBzdHlsZT0iZmlsbDojNTU2QThBO3N0cm9rZTojNTU2QThBO3N0cm9rZS13aWR0aDowLjc1O3N0cm9rZS1saW5lY2FwOnJvdW5kO3N0cm9rZS1saW5lam9pbjpyb3VuZDtzdHJva2UtbWl0ZXJsaW1pdDozOyIgZD0iICAgICBNMC4zOCw2Ny4yM2MwLDEuMDIsMCwxLjAyLDAsMS4wMkMwLDY3Ljk5LDAsNjcuOTksMCw2Ny45OWMwLTIuNzUsMC0yLjc1LDAtMi43NWMwLjcxLDAuNDUsMC43MSwwLjQ1LDAuNzEsMC40NSAgICAgYzAuMjYsMC4xOSwwLjQ0LDAuMzgsMC42MSwwLjY0YzAuMTQsMC4yNCwwLjIxLDAuNSwwLjIxLDAuNzZjMCwwLjI4LTAuMDcsMC40My0wLjIxLDAuNWMtMC4xNywwLjA5LTAuMzgsMC4wMi0wLjY0LTAuMTIgICAgIEwwLjM4LDY3LjIzeiBNMC4zOCw2NS44OGMwLDEuMDIsMCwxLjAyLDAsMS4wMmMwLjIzLDAuMTQsMC4yMywwLjE0LDAuMjMsMC4xNGMwLjE5LDAuMSwwLjI5LDAuMTQsMC4zOCwwLjEgICAgIGMwLjA5LTAuMDMsMC4xNC0wLjEyLDAuMTQtMC4yOWMwLTAuMzMtMC4xNi0wLjU5LTAuNDctMC44TDAuMzgsNjUuODh6Ii8+JiN4YTsJCTwvZz4mI3hhOwkJPGcgaWQ9InNoYXBlOTM5LTE2MiIgdHJhbnNmb3JtPSJ0cmFuc2xhdGUoMTEuMTE3OSwtNDAuMjAxNCkiPiYjeGE7CQkJPHRpdGxlIGlkPSJ0aXRsZTc5MjM5Ij5TaGVldC45Mzk8L3RpdGxlPiYjeGE7CQkJJiN4YTsJCQkJPHBhdGggaWQ9InBhdGg3OTI0MSIgaW5rc2NhcGU6Y29ubmVjdG9yLWN1cnZhdHVyZT0iMCIgc3R5bGU9ImZpbGw6IzU1NkE4QTtzdHJva2U6IzU1NkE4QTtzdHJva2Utd2lkdGg6MC43NTtzdHJva2UtbGluZWNhcDpyb3VuZDtzdHJva2UtbGluZWpvaW46cm91bmQ7c3Ryb2tlLW1pdGVybGltaXQ6MzsiIGQ9IiAgICAgTTEuNzksNjguMjVjLTAuNDUtMC4yOC0wLjQ1LTAuMjgtMC40NS0wLjI4Yy0wLjM3LTEtMC4zNy0xLTAuMzctMWMtMC4wMy0wLjA5LTAuMDUtMC4xNC0wLjEtMC4yMSAgICAgYy0wLjAyLTAuMDctMC4wNS0wLjEyLTAuMDktMC4xOWMtMC4wMy0wLjA3LTAuMDUtMC4xLTAuMS0wLjEyYy0wLjA0LTAuMDctMC4wOS0wLjEtMC4xNC0wLjE0Yy0wLjE0LTAuMS0wLjE0LTAuMS0wLjE0LTAuMSAgICAgYzAsMS4xNCwwLDEuMTQsMCwxLjE0QzAsNjcuMTEsMCw2Ny4xMSwwLDY3LjExYzAtMi43NSwwLTIuNzUsMC0yLjc1YzAuNzgsMC40OCwwLjc4LDAuNDgsMC43OCwwLjQ4ICAgICBjMC4wOSwwLjA1LDAuMTksMC4xNCwwLjI4LDAuMjRjMC4wOSwwLjA5LDAuMTYsMC4xOSwwLjI2LDAuMjhjMC4wNywwLjA5LDAuMDksMC4yNCwwLjE2LDAuMzZjMC4wMywwLjA5LDAuMDMsMC4yMSwwLjAzLDAuMzUgICAgIGMwLDAuMSwwLDAuMTktMC4wMywwLjI0Yy0wLjA0LDAuMDctMC4wNywwLjE0LTAuMDksMC4xNkMxLjM0LDY2LjUsMS4zLDY2LjUsMS4yMiw2Ni41Yy0wLjA3LDAuMDQtMC4xMSwwLTAuMjEtMC4wMyAgICAgYzAsMC4wMywwLDAuMDMsMCwwLjAzYzAuMDMsMC4wNCwwLjEsMC4wOSwwLjEyLDAuMTZjMC4wMiwwLjA3LDAuMDcsMC4xLDAuMDcsMC4xN2MwLjAyLDAuMDUsMC4wNSwwLjA5LDAuMSwwLjE0ICAgICBjMC4wMiwwLjA3LDAuMDQsMC4xNywwLjA5LDAuMjRMMS43OSw2OC4yNXogTTAuNCw2NC45NmMwLDAuODcsMCwwLjg3LDAsMC44N2MwLjMzLDAuMjQsMC4zMywwLjI0LDAuMzMsMC4yNCAgICAgYzAuMDUsMC4wMiwwLjA5LDAuMDUsMC4xNCwwLjA1YzAuMDUsMC4wNSwwLjEsMC4wNSwwLjE0LDBjMC4wMy0wLjAzLDAuMDUtMC4wNSwwLjEtMC4xYzAtMC4wMiwwLjAyLTAuMDksMC4wMi0wLjE5ICAgICBjMC0wLjExLTAuMDctMC4yMy0wLjEyLTAuMzhjLTAuMDctMC4wOS0wLjE2LTAuMjEtMC4yOC0wLjI4TDAuNCw2NC45NnoiLz4mI3hhOwkJPC9nPiYjeGE7CQk8ZyBpZD0ic2hhcGU5NDAtMTY0IiB0cmFuc2Zvcm09InRyYW5zbGF0ZSgxMy4xNjcxLC0zOS4yMDY0KSI+JiN4YTsJCQk8dGl0bGUgaWQ9InRpdGxlNzkyNDQiPlNoZWV0Ljk0MDwvdGl0bGU+JiN4YTsJCQkmI3hhOwkJCQk8cGF0aCBpZD0icGF0aDc5MjQ2IiBpbmtzY2FwZTpjb25uZWN0b3ItY3VydmF0dXJlPSIwIiBzdHlsZT0iZmlsbDojNTU2QThBO3N0cm9rZTojNTU2QThBO3N0cm9rZS13aWR0aDowLjc1O3N0cm9rZS1saW5lY2FwOnJvdW5kO3N0cm9rZS1saW5lam9pbjpyb3VuZDtzdHJva2UtbWl0ZXJsaW1pdDozOyIgZD0iICAgICBNMS4zMiw2OC4yNUwwLDY3LjQ0VjY0LjdsMS4yNSwwLjc4djAuMzhMMC40LDY1LjMxdjAuNzZsMC43OCwwLjU1djAuMzdMMC40LDY2LjV2MC43OGwwLjkyLDAuNTlWNjguMjV6Ii8+JiN4YTsJCTwvZz4mI3hhOwkJPGcgaWQ9InNoYXBlOTQxLTE2NiIgdHJhbnNmb3JtPSJ0cmFuc2xhdGUoMTQuODg2NiwtMzcuMzExMykiPiYjeGE7CQkJPHRpdGxlIGlkPSJ0aXRsZTc5MjQ5Ij5TaGVldC45NDE8L3RpdGxlPiYjeGE7CQkJJiN4YTsJCQkJPHBhdGggaWQ9InBhdGg3OTI1MSIgaW5rc2NhcGU6Y29ubmVjdG9yLWN1cnZhdHVyZT0iMCIgc3R5bGU9ImZpbGw6IzU1NkE4QTtzdHJva2U6IzU1NkE4QTtzdHJva2Utd2lkdGg6MC43NTtzdHJva2UtbGluZWNhcDpyb3VuZDtzdHJva2UtbGluZWpvaW46cm91bmQ7c3Ryb2tlLW1pdGVybGltaXQ6MzsiIGQ9IiAgICAgTTIuNDUsNjguMjVjLTAuMzgtMC4yNC0wLjM4LTAuMjQtMC4zOC0wLjI0YzAtMS44LDAtMS44LDAtMS44YzAtMC4xNCwwLTAuMzMsMC4wMy0wLjUybDAsMGMtMC4wMywwLjEtMC4wNSwwLjE3LTAuMDUsMC4yNCAgICAgYy0wLjcxLDEuNjEtMC43MSwxLjYxLTAuNzEsMS42MWMtMC4yOC0wLjE5LTAuMjgtMC4xOS0wLjI4LTAuMTlDMC40LDY0Ljg5LDAuNCw2NC44OSwwLjQsNjQuODljLTAuMDItMC4xLTAuMDUtMC4xOS0wLjA1LTAuMzQgICAgIGMtMC4wNC0wLjAyLTAuMDQtMC4wMi0wLjA0LTAuMDJjMC4wNCwwLjEyLDAuMDQsMC4zMSwwLjA0LDAuNTdjMCwxLjc4LDAsMS43OCwwLDEuNzhDMCw2Ni42NCwwLDY2LjY0LDAsNjYuNjQgICAgIGMwLTIuNzUsMC0yLjc1LDAtMi43NWMwLjU0LDAuMzYsMC41NCwwLjM2LDAuNTQsMC4zNmMwLjU5LDIuMiwwLjU5LDIuMiwwLjU5LDIuMmMwLjAyLDAuMTksMC4wNywwLjMzLDAuMDksMC4zOGwwLDAgICAgIGMwLjAzLTAuMTIsMC4wOC0wLjE5LDAuMS0wLjI0YzAuNjQtMS40MiwwLjY0LTEuNDIsMC42NC0xLjQyYzAuNDksMC4zMSwwLjQ5LDAuMzEsMC40OSwwLjMxVjY4LjI1eiIvPiYjeGE7CQk8L2c+JiN4YTsJPC9nPiYjeGE7PC9nPiYjeGE7PC9zdmc+;" parent="1" vertex="1">
          <mxGeometry x="-44" y="1260.25" width="44" height="69" as="geometry" />
        </mxCell>
        <mxCell id="jQJTU6ZBYPHnSlzti1QZ-69" value="192.168.1.0/16" style="text;html=1;strokeColor=none;fillColor=none;align=center;verticalAlign=middle;whiteSpace=wrap;rounded=0;" parent="1" vertex="1">
          <mxGeometry x="110" y="1310" width="182" height="30" as="geometry" />
        </mxCell>
        <mxCell id="jQJTU6ZBYPHnSlzti1QZ-70" value="nathan-spokePESubnet_pe-ms-001" style="text;html=1;strokeColor=none;fillColor=none;align=center;verticalAlign=middle;whiteSpace=wrap;rounded=0;" parent="1" vertex="1">
          <mxGeometry x="930" y="2020" width="165" height="30" as="geometry" />
        </mxCell>
        <mxCell id="jQJTU6ZBYPHnSlzti1QZ-71" value="" style="endArrow=none;dashed=1;html=1;dashPattern=1 3;strokeWidth=2;rounded=0;exitX=1;exitY=0.5;exitDx=0;exitDy=0;" parent="1" source="jQJTU6ZBYPHnSlzti1QZ-2" target="jQJTU6ZBYPHnSlzti1QZ-74" edge="1">
          <mxGeometry width="50" height="50" relative="1" as="geometry">
            <mxPoint x="1460" y="1480" as="sourcePoint" />
            <mxPoint x="1660" y="1450" as="targetPoint" />
          </mxGeometry>
        </mxCell>
        <mxCell id="jQJTU6ZBYPHnSlzti1QZ-73" value="" style="endArrow=none;dashed=1;html=1;dashPattern=1 3;strokeWidth=2;rounded=0;entryX=0.4;entryY=0.75;entryDx=0;entryDy=0;entryPerimeter=0;exitX=1;exitY=0.5;exitDx=0;exitDy=0;" parent="1" source="jQJTU6ZBYPHnSlzti1QZ-3" target="jQJTU6ZBYPHnSlzti1QZ-74" edge="1">
          <mxGeometry width="50" height="50" relative="1" as="geometry">
            <mxPoint x="1570" y="1710" as="sourcePoint" />
            <mxPoint x="1969" y="1502.5" as="targetPoint" />
            <Array as="points">
              <mxPoint x="1700" y="1940" />
            </Array>
          </mxGeometry>
        </mxCell>
        <mxCell id="jQJTU6ZBYPHnSlzti1QZ-74" value="" style="image;sketch=0;aspect=fixed;html=1;points=[];align=center;fontSize=12;image=img/lib/mscae/DNS_Private_Zones.svg;" parent="1" vertex="1">
          <mxGeometry x="1660" y="1415" width="100" height="100" as="geometry" />
        </mxCell>
        <mxCell id="jQJTU6ZBYPHnSlzti1QZ-75" value="" style="verticalLabelPosition=bottom;html=1;verticalAlign=top;align=center;strokeColor=none;fillColor=#00BEF2;shape=mxgraph.azure.laptop;pointerEvents=1;" parent="1" vertex="1">
          <mxGeometry x="110" y="1688.75" width="100" height="80" as="geometry" />
        </mxCell>
        <mxCell id="jQJTU6ZBYPHnSlzti1QZ-23" value="" style="image;sketch=0;aspect=fixed;html=1;points=[];align=center;fontSize=12;image=img/lib/mscae/App_Services.svg;" parent="1" vertex="1">
          <mxGeometry x="1011.5" y="680" width="86.5" height="86.5" as="geometry" />
        </mxCell>
        <mxCell id="jQJTU6ZBYPHnSlzti1QZ-82" value="10.20.0.0/16" style="text;html=1;strokeColor=none;fillColor=none;align=center;verticalAlign=middle;whiteSpace=wrap;rounded=0;" parent="1" vertex="1">
          <mxGeometry x="691.5" y="890" width="80" height="30" as="geometry" />
        </mxCell>
        <mxCell id="jQJTU6ZBYPHnSlzti1QZ-84" value="10.10.0.0/16" style="text;html=1;strokeColor=none;fillColor=none;align=center;verticalAlign=middle;whiteSpace=wrap;rounded=0;" parent="1" vertex="1">
          <mxGeometry x="691.5" y="1370" width="80" height="30" as="geometry" />
        </mxCell>
        <mxCell id="jQJTU6ZBYPHnSlzti1QZ-85" value="10.30.0.0/16" style="text;html=1;strokeColor=none;fillColor=none;align=center;verticalAlign=middle;whiteSpace=wrap;rounded=0;" parent="1" vertex="1">
          <mxGeometry x="702.5" y="1842.5" width="80" height="30" as="geometry" />
        </mxCell>
        <mxCell id="jQJTU6ZBYPHnSlzti1QZ-86" value="" style="html=1;strokeWidth=1;shadow=0;dashed=0;shape=mxgraph.ios7.misc.vpn;fillColor=#007AFF;strokeColor=none;buttonText=;strokeColor2=#222222;fontColor=#222222;fontSize=8;verticalLabelPosition=bottom;verticalAlign=top;align=center;sketch=0;" parent="1" vertex="1">
          <mxGeometry x="235" y="1725.25" width="15" height="15" as="geometry" />
        </mxCell>
        <mxCell id="00JO5QgCpFu7TwFQyqcH-3" style="edgeStyle=orthogonalEdgeStyle;rounded=0;orthogonalLoop=1;jettySize=auto;html=1;" parent="1" source="00JO5QgCpFu7TwFQyqcH-1" edge="1">
          <mxGeometry relative="1" as="geometry">
            <mxPoint x="1440" y="985" as="targetPoint" />
          </mxGeometry>
        </mxCell>
        <mxCell id="00JO5QgCpFu7TwFQyqcH-1" value="Private Integration subnet" style="points=[[0,0],[0.25,0],[0.5,0],[0.75,0],[1,0],[1,0.25],[1,0.5],[1,0.75],[1,1],[0.75,1],[0.5,1],[0.25,1],[0,1],[0,0.75],[0,0.5],[0,0.25]];outlineConnect=0;gradientColor=none;html=1;whiteSpace=wrap;fontSize=12;fontStyle=0;container=1;pointerEvents=0;collapsible=0;recursiveResize=0;shape=mxgraph.aws4.group;grIcon=mxgraph.aws4.group_security_group;grStroke=0;strokeColor=#147EBA;fillColor=#E6F2F8;verticalAlign=top;align=left;spacingLeft=30;fontColor=#147EBA;dashed=0;" parent="1" vertex="1">
          <mxGeometry x="979.75" y="910" width="150" height="150" as="geometry" />
        </mxCell>
        <mxCell id="00JO5QgCpFu7TwFQyqcH-2" style="edgeStyle=orthogonalEdgeStyle;rounded=0;orthogonalLoop=1;jettySize=auto;html=1;entryX=0;entryY=0.546;entryDx=0;entryDy=0;entryPerimeter=0;" parent="1" source="00JO5QgCpFu7TwFQyqcH-1" target="jQJTU6ZBYPHnSlzti1QZ-26" edge="1">
          <mxGeometry relative="1" as="geometry" />
        </mxCell>
        <mxCell id="00JO5QgCpFu7TwFQyqcH-4" value="" style="endArrow=none;dashed=1;html=1;dashPattern=1 3;strokeWidth=2;rounded=0;exitX=0.4;exitY=0.05;exitDx=0;exitDy=0;exitPerimeter=0;entryX=1;entryY=0.5;entryDx=0;entryDy=0;" parent="1" source="jQJTU6ZBYPHnSlzti1QZ-74" target="jQJTU6ZBYPHnSlzti1QZ-27" edge="1">
          <mxGeometry width="50" height="50" relative="1" as="geometry">
            <mxPoint x="1970" y="1407.5" as="sourcePoint" />
            <mxPoint x="1363" y="980" as="targetPoint" />
            <Array as="points">
              <mxPoint x="1700" y="985" />
            </Array>
          </mxGeometry>
        </mxCell>
        <mxCell id="jQJTU6ZBYPHnSlzti1QZ-27" value="" style="image;aspect=fixed;html=1;points=[];align=center;fontSize=12;image=img/lib/azure2/databases/SQL_Database.svg;" parent="1" vertex="1">
          <mxGeometry x="1440" y="953" width="48" height="64" as="geometry" />
        </mxCell>
        <mxCell id="00JO5QgCpFu7TwFQyqcH-6" value="Private VM subnet" style="points=[[0,0],[0.25,0],[0.5,0],[0.75,0],[1,0],[1,0.25],[1,0.5],[1,0.75],[1,1],[0.75,1],[0.5,1],[0.25,1],[0,1],[0,0.75],[0,0.5],[0,0.25]];outlineConnect=0;gradientColor=none;html=1;whiteSpace=wrap;fontSize=12;fontStyle=0;container=1;pointerEvents=0;collapsible=0;recursiveResize=0;shape=mxgraph.aws4.group;grIcon=mxgraph.aws4.group_security_group;grStroke=0;strokeColor=#147EBA;fillColor=#E6F2F8;verticalAlign=top;align=left;spacingLeft=30;fontColor=#147EBA;dashed=0;" parent="1" vertex="1">
          <mxGeometry x="800" y="910" width="150" height="150" as="geometry" />
        </mxCell>
        <mxCell id="jQJTU6ZBYPHnSlzti1QZ-22" value="" style="verticalLabelPosition=bottom;html=1;verticalAlign=top;align=center;strokeColor=none;fillColor=#00BEF2;shape=mxgraph.azure.virtual_machine_feature;pointerEvents=1;" parent="00JO5QgCpFu7TwFQyqcH-6" vertex="1">
          <mxGeometry x="22.5" y="43" width="100" height="95" as="geometry" />
        </mxCell>
        <mxCell id="00JO5QgCpFu7TwFQyqcH-7" value="Firewall Subnet" style="points=[[0,0],[0.25,0],[0.5,0],[0.75,0],[1,0],[1,0.25],[1,0.5],[1,0.75],[1,1],[0.75,1],[0.5,1],[0.25,1],[0,1],[0,0.75],[0,0.5],[0,0.25]];outlineConnect=0;gradientColor=none;html=1;whiteSpace=wrap;fontSize=12;fontStyle=0;container=1;pointerEvents=0;collapsible=0;recursiveResize=0;shape=mxgraph.aws4.group;grIcon=mxgraph.aws4.group_security_group;grStroke=0;strokeColor=#147EBA;fillColor=#E6F2F8;verticalAlign=top;align=left;spacingLeft=30;fontColor=#147EBA;dashed=0;" parent="1" vertex="1">
          <mxGeometry x="979.75" y="1370" width="150" height="150" as="geometry" />
        </mxCell>
        <mxCell id="jQJTU6ZBYPHnSlzti1QZ-10" value="" style="image;aspect=fixed;html=1;points=[];align=center;fontSize=12;image=img/lib/azure2/networking/Firewalls.svg;" parent="00JO5QgCpFu7TwFQyqcH-7" vertex="1">
          <mxGeometry x="39.5" y="50" width="71" height="60" as="geometry" />
        </mxCell>
        <mxCell id="00JO5QgCpFu7TwFQyqcH-8" value="Gateway Subnet" style="points=[[0,0],[0.25,0],[0.5,0],[0.75,0],[1,0],[1,0.25],[1,0.5],[1,0.75],[1,1],[0.75,1],[0.5,1],[0.25,1],[0,1],[0,0.75],[0,0.5],[0,0.25]];outlineConnect=0;gradientColor=none;html=1;whiteSpace=wrap;fontSize=12;fontStyle=0;container=1;pointerEvents=0;collapsible=0;recursiveResize=0;shape=mxgraph.aws4.group;grIcon=mxgraph.aws4.group_security_group;grStroke=0;strokeColor=#147EBA;fillColor=#E6F2F8;verticalAlign=top;align=left;spacingLeft=30;fontColor=#147EBA;dashed=0;" parent="1" vertex="1">
          <mxGeometry x="807.5" y="1370" width="150" height="150" as="geometry" />
        </mxCell>
        <mxCell id="jQJTU6ZBYPHnSlzti1QZ-39" value="" style="outlineConnect=0;dashed=0;verticalLabelPosition=bottom;verticalAlign=top;align=center;html=1;shape=mxgraph.aws3.vpn_gateway;fillColor=#F58534;gradientColor=none;" parent="00JO5QgCpFu7TwFQyqcH-8" vertex="1">
          <mxGeometry x="40.5" y="44" width="69" height="72" as="geometry" />
        </mxCell>
        <mxCell id="00JO5QgCpFu7TwFQyqcH-10" style="edgeStyle=orthogonalEdgeStyle;rounded=0;orthogonalLoop=1;jettySize=auto;html=1;entryX=0;entryY=0.426;entryDx=0;entryDy=0;entryPerimeter=0;" parent="1" source="00JO5QgCpFu7TwFQyqcH-1" target="jQJTU6ZBYPHnSlzti1QZ-28" edge="1">
          <mxGeometry relative="1" as="geometry" />
        </mxCell>
        <mxCell id="00JO5QgCpFu7TwFQyqcH-14" value="Private PE Subnet" style="points=[[0,0],[0.25,0],[0.5,0],[0.75,0],[1,0],[1,0.25],[1,0.5],[1,0.75],[1,1],[0.75,1],[0.5,1],[0.25,1],[0,1],[0,0.75],[0,0.5],[0,0.25]];outlineConnect=0;gradientColor=none;html=1;whiteSpace=wrap;fontSize=12;fontStyle=0;container=1;pointerEvents=0;collapsible=0;recursiveResize=0;shape=mxgraph.aws4.group;grIcon=mxgraph.aws4.group_security_group;grStroke=0;strokeColor=#147EBA;fillColor=#E6F2F8;verticalAlign=top;align=left;spacingLeft=30;fontColor=#147EBA;dashed=0;" parent="1" vertex="1">
          <mxGeometry x="937.5" y="1851.25" width="150" height="150" as="geometry" />
        </mxCell>
        <mxCell id="00JO5QgCpFu7TwFQyqcH-16" style="edgeStyle=orthogonalEdgeStyle;rounded=0;orthogonalLoop=1;jettySize=auto;html=1;entryX=1.007;entryY=0.493;entryDx=0;entryDy=0;entryPerimeter=0;startArrow=oval;startFill=1;" parent="1" source="00JO5QgCpFu7TwFQyqcH-14" target="jQJTU6ZBYPHnSlzti1QZ-23" edge="1">
          <mxGeometry relative="1" as="geometry">
            <Array as="points">
              <mxPoint x="1620" y="1926" />
              <mxPoint x="1620" y="723" />
            </Array>
          </mxGeometry>
        </mxCell>
        <mxCell id="00JO5QgCpFu7TwFQyqcH-18" style="edgeStyle=orthogonalEdgeStyle;rounded=0;orthogonalLoop=1;jettySize=auto;html=1;entryX=0;entryY=0.5;entryDx=0;entryDy=0;entryPerimeter=0;" parent="1" source="jQJTU6ZBYPHnSlzti1QZ-89" target="jQJTU6ZBYPHnSlzti1QZ-39" edge="1">
          <mxGeometry relative="1" as="geometry" />
        </mxCell>
        <mxCell id="00JO5QgCpFu7TwFQyqcH-20" value="" style="edgeStyle=orthogonalEdgeStyle;rounded=0;orthogonalLoop=1;jettySize=auto;html=1;entryX=0;entryY=0.5;entryDx=0;entryDy=0;entryPerimeter=0;" parent="1" source="jQJTU6ZBYPHnSlzti1QZ-41" target="jQJTU6ZBYPHnSlzti1QZ-89" edge="1">
          <mxGeometry relative="1" as="geometry">
            <mxPoint x="429" y="1451" as="sourcePoint" />
            <mxPoint x="848" y="1450" as="targetPoint" />
          </mxGeometry>
        </mxCell>
        <mxCell id="jQJTU6ZBYPHnSlzti1QZ-89" value="" style="sketch=0;pointerEvents=1;shadow=0;dashed=0;html=1;strokeColor=none;fillColor=#505050;labelPosition=center;verticalLabelPosition=bottom;verticalAlign=top;outlineConnect=0;align=center;shape=mxgraph.office.servers.tunnel_straight;" parent="1" vertex="1">
          <mxGeometry x="540" y="1445" width="59" height="10" as="geometry" />
        </mxCell>
        <mxCell id="8-rZCcRkLl_mtkQkUf6G-1" value="OnPrem Subnet" style="points=[[0,0],[0.25,0],[0.5,0],[0.75,0],[1,0],[1,0.25],[1,0.5],[1,0.75],[1,1],[0.75,1],[0.5,1],[0.25,1],[0,1],[0,0.75],[0,0.5],[0,0.25]];outlineConnect=0;gradientColor=none;html=1;whiteSpace=wrap;fontSize=12;fontStyle=0;container=1;pointerEvents=0;collapsible=0;recursiveResize=0;shape=mxgraph.aws4.group;grIcon=mxgraph.aws4.group_security_group;grStroke=0;strokeColor=#147EBA;fillColor=#E6F2F8;verticalAlign=top;align=left;spacingLeft=30;fontColor=#147EBA;dashed=0;" vertex="1" parent="1">
          <mxGeometry x="-10" y="1375" width="150" height="150" as="geometry" />
        </mxCell>
        <mxCell id="jQJTU6ZBYPHnSlzti1QZ-67" value="" style="verticalLabelPosition=bottom;html=1;verticalAlign=top;align=center;strokeColor=none;fillColor=#00BEF2;shape=mxgraph.azure.computer;pointerEvents=1;" parent="8-rZCcRkLl_mtkQkUf6G-1" vertex="1">
          <mxGeometry x="25" y="40" width="100" height="95" as="geometry" />
        </mxCell>
        <mxCell id="8-rZCcRkLl_mtkQkUf6G-3" value="Gateway Subnet" style="points=[[0,0],[0.25,0],[0.5,0],[0.75,0],[1,0],[1,0.25],[1,0.5],[1,0.75],[1,1],[0.75,1],[0.5,1],[0.25,1],[0,1],[0,0.75],[0,0.5],[0,0.25]];outlineConnect=0;gradientColor=none;html=1;whiteSpace=wrap;fontSize=12;fontStyle=0;container=1;pointerEvents=0;collapsible=0;recursiveResize=0;shape=mxgraph.aws4.group;grIcon=mxgraph.aws4.group_security_group;grStroke=0;strokeColor=#147EBA;fillColor=#E6F2F8;verticalAlign=top;align=left;spacingLeft=30;fontColor=#147EBA;dashed=0;" vertex="1" parent="1">
          <mxGeometry x="162.5" y="1375" width="150" height="150" as="geometry" />
        </mxCell>
        <mxCell id="8-rZCcRkLl_mtkQkUf6G-5" style="edgeStyle=orthogonalEdgeStyle;rounded=0;orthogonalLoop=1;jettySize=auto;html=1;entryX=0;entryY=0.5;entryDx=0;entryDy=0;entryPerimeter=0;" edge="1" parent="1" source="8-rZCcRkLl_mtkQkUf6G-3" target="jQJTU6ZBYPHnSlzti1QZ-41">
          <mxGeometry relative="1" as="geometry" />
        </mxCell>
      </root>
    </mxGraphModel>
  </diagram>
</mxfile>
